<?xml version="1.0" encoding="UTF-8" standalone="no"?>
<!-- Created with Inkscape (http://www.inkscape.org/) -->

<svg
        xmlns:inkscape="http://www.inkscape.org/namespaces/inkscape"
        xmlns:sodipodi="http://sodipodi.sourceforge.net/DTD/sodipodi-0.dtd"
        width="210mm"
        height="297mm"
        viewBox="0 0 210 297"
        version="1.1"
        id="svg1"
        inkscape:version="1.3.2 (091e20e, 2023-11-25, custom)"
        sodipodi:docname="AdministrationF.svg"
        xmlns="http://www.w3.org/2000/svg"
>
    <sodipodi:namedview
            id="namedview1"
            pagecolor="#505050"
            bordercolor="#eeeeee"
            borderopacity="1"
            inkscape:showpageshadow="0"
            inkscape:pageopacity="0"
            inkscape:pagecheckerboard="0"
            inkscape:deskcolor="#505050"
            inkscape:document-units="mm"
            inkscape:zoom="0.76446518"
            inkscape:cx="389.81501"
            inkscape:cy="669.09523"
            inkscape:window-width="1920"
            inkscape:window-height="1009"
            inkscape:window-x="-8"
            inkscape:window-y="-8"
            inkscape:window-maximized="1"
            inkscape:current-layer="layer1"/>
    <defs
            id="defs1">
        <inkscape:path-effect
                effect="bspline"
                id="path-effect59"
                is_visible="true"
                lpeversion="1.3"
                weight="33.333333"
                steps="2"
                helper_size="0"
                apply_no_weight="true"
                apply_with_weight="true"
                only_selected="false"
                uniform="false"/>
        <linearGradient
                id="swatch50">
            <stop
                    style="stop-color:#808080;stop-opacity:1;"
                    offset="0.08125"
                    id="stop50"/>
        </linearGradient>
        <inkscape:path-effect
                effect="powerstroke"
                id="path-effect41"
                is_visible="true"
                lpeversion="1.3"
                scale_width="1"
                interpolator_type="CentripetalCatmullRom"
                interpolator_beta="0.75"
                start_linecap_type="round"
                end_linecap_type="round"
                offset_points="6.4468466,0"
                linejoin_type="spiro"
                miter_limit="4"
                not_jump="true"
                sort_points="true"
                message="&lt;b&gt;Ctrl + clic&lt;/b&gt; puis déplacement sur un nœud existant"/>
        <inkscape:path-effect
                effect="simplify"
                id="path-effect40"
                is_visible="true"
                lpeversion="1.3"
                threshold="0.012"
                steps="1"
                smooth_angles="0"
                helper_size="0"
                simplify_individual_paths="false"
                simplify_just_coalesce="false"
                step="1"/>
        <inkscape:path-effect
                effect="powerstroke"
                id="path-effect39"
                is_visible="true"
                lpeversion="1.3"
                scale_width="1"
                interpolator_type="CentripetalCatmullRom"
                interpolator_beta="0.75"
                start_linecap_type="round"
                end_linecap_type="round"
                offset_points="6.3928077,0"
                linejoin_type="spiro"
                miter_limit="4"
                not_jump="true"
                sort_points="true"
                message="&lt;b&gt;Ctrl + clic&lt;/b&gt; puis déplacement sur un nœud existant"/>
        <inkscape:path-effect
                effect="simplify"
                id="path-effect38"
                is_visible="true"
                lpeversion="1.3"
                threshold="0.012"
                steps="1"
                smooth_angles="0"
                helper_size="0"
                simplify_individual_paths="false"
                simplify_just_coalesce="false"
                step="1"/>
        <inkscape:path-effect
                effect="powerstroke"
                id="path-effect37"
                is_visible="true"
                lpeversion="1.3"
                scale_width="1"
                interpolator_type="CentripetalCatmullRom"
                interpolator_beta="0.75"
                start_linecap_type="round"
                end_linecap_type="round"
                offset_points="54.5,0"
                linejoin_type="spiro"
                miter_limit="4"
                not_jump="true"
                sort_points="true"
                message="&lt;b&gt;Ctrl + clic&lt;/b&gt; puis déplacement sur un nœud existant"/>
        <inkscape:path-effect
                effect="simplify"
                id="path-effect36"
                is_visible="true"
                lpeversion="1.3"
                threshold="0.012"
                steps="1"
                smooth_angles="0"
                helper_size="0"
                simplify_individual_paths="false"
                simplify_just_coalesce="false"
                step="1"/>
        <inkscape:path-effect
                effect="powerstroke"
                id="path-effect35"
                is_visible="true"
                lpeversion="1.3"
                scale_width="1"
                interpolator_type="CentripetalCatmullRom"
                interpolator_beta="0.75"
                start_linecap_type="round"
                end_linecap_type="round"
                offset_points="60,0"
                linejoin_type="spiro"
                miter_limit="4"
                not_jump="true"
                sort_points="true"
                message="&lt;b&gt;Ctrl + clic&lt;/b&gt; puis déplacement sur un nœud existant"/>
        <inkscape:path-effect
                effect="simplify"
                id="path-effect34"
                is_visible="true"
                lpeversion="1.3"
                threshold="0.012"
                steps="1"
                smooth_angles="0"
                helper_size="0"
                simplify_individual_paths="false"
                simplify_just_coalesce="false"
                step="1"/>
        <inkscape:path-effect
                effect="powerstroke"
                id="path-effect33"
                is_visible="true"
                lpeversion="1.3"
                scale_width="1"
                interpolator_type="CentripetalCatmullRom"
                interpolator_beta="0.75"
                start_linecap_type="round"
                end_linecap_type="round"
                offset_points="83,0.14491224"
                linejoin_type="spiro"
                miter_limit="4"
                not_jump="true"
                sort_points="true"
                message="&lt;b&gt;Ctrl + clic&lt;/b&gt; puis déplacement sur un nœud existant"/>
        <inkscape:path-effect
                effect="simplify"
                id="path-effect32"
                is_visible="true"
                lpeversion="1.3"
                threshold="0.012"
                steps="1"
                smooth_angles="0"
                helper_size="0"
                simplify_individual_paths="false"
                simplify_just_coalesce="false"
                step="1"/>
        <inkscape:path-effect
                effect="powerstroke"
                id="path-effect31"
                is_visible="true"
                lpeversion="1.3"
                scale_width="1"
                interpolator_type="CentripetalCatmullRom"
                interpolator_beta="0.75"
                start_linecap_type="round"
                end_linecap_type="round"
                offset_points="63.424775,0.14491224"
                linejoin_type="spiro"
                miter_limit="4"
                not_jump="true"
                sort_points="true"
                message="&lt;b&gt;Ctrl + clic&lt;/b&gt; puis déplacement sur un nœud existant"/>
        <inkscape:path-effect
                effect="simplify"
                id="path-effect30"
                is_visible="true"
                lpeversion="1.3"
                threshold="0.012"
                steps="1"
                smooth_angles="0"
                helper_size="0"
                simplify_individual_paths="false"
                simplify_just_coalesce="false"
                step="1"/>
        <inkscape:path-effect
                effect="powerstroke"
                id="path-effect29"
                is_visible="true"
                lpeversion="1.3"
                scale_width="1"
                interpolator_type="CentripetalCatmullRom"
                interpolator_beta="0.75"
                start_linecap_type="round"
                end_linecap_type="round"
                offset_points="22.584838,0.14491224"
                linejoin_type="spiro"
                miter_limit="4"
                not_jump="true"
                sort_points="true"
                message="&lt;b&gt;Ctrl + clic&lt;/b&gt; puis déplacement sur un nœud existant"/>
        <inkscape:path-effect
                effect="simplify"
                id="path-effect28"
                is_visible="true"
                lpeversion="1.3"
                threshold="0.012"
                steps="1"
                smooth_angles="0"
                helper_size="0"
                simplify_individual_paths="false"
                simplify_just_coalesce="false"
                step="1"/>
        <inkscape:path-effect
                effect="powerstroke"
                id="path-effect27"
                is_visible="true"
                lpeversion="1.3"
                scale_width="1"
                interpolator_type="CentripetalCatmullRom"
                interpolator_beta="0.75"
                start_linecap_type="round"
                end_linecap_type="round"
                offset_points="5.7110562,0.14491224"
                linejoin_type="spiro"
                miter_limit="4"
                not_jump="true"
                sort_points="true"
                message="&lt;b&gt;Ctrl + clic&lt;/b&gt; puis déplacement sur un nœud existant"/>
        <inkscape:path-effect
                effect="simplify"
                id="path-effect26"
                is_visible="true"
                lpeversion="1.3"
                threshold="0.012"
                steps="1"
                smooth_angles="0"
                helper_size="0"
                simplify_individual_paths="false"
                simplify_just_coalesce="false"
                step="1"/>
        <inkscape:path-effect
                effect="bspline"
                id="path-effect21"
                is_visible="true"
                lpeversion="1.3"
                weight="33.333333"
                steps="2"
                helper_size="0"
                apply_no_weight="true"
                apply_with_weight="true"
                only_selected="false"
                uniform="false"/>
    </defs>
    <g
            inkscape:label="Calque 1"
            inkscape:groupmode="layer"
            id="layer1">
        <path
                style="font-size:14.1111px;font-family:Consolas;-inkscape-font-specification:Consolas;fill:#808080;stroke-width:0.264583"
                d="m 58.160547,268.88794 h -1.336696 l -0.627007,-1.9637 h -3.748261 l -0.633897,1.9637 h -1.274684 l 2.99034,-9.00547 h 1.681206 z m -2.315102,-3.05924 -1.522731,-4.81624 -1.522731,4.81624 z m 3.135034,-0.25494 q 0,-0.88194 0.241157,-1.56407 0.241156,-0.68902 0.682128,-1.15755 0.447862,-0.47543 1.067979,-0.71658 0.627007,-0.24805 1.391817,-0.24805 0.330729,0 0.647678,0.0413 0.323838,0.0413 0.633897,0.13092 v -2.90766 h 1.205782 v 9.73583 h -1.074869 l -0.04134,-1.30914 q -0.502983,0.73036 -1.088649,1.08176 -0.585666,0.3514 -1.267794,0.3514 -0.592556,0 -1.047309,-0.24804 -0.447862,-0.24805 -0.75103,-0.69591 -0.296278,-0.45475 -0.447862,-1.08865 -0.151584,-0.6339 -0.151584,-1.4056 z m 1.226453,-0.0758 q 0,1.25401 0.36518,1.87413 0.37207,0.61323 1.047308,0.61323 0.454752,0 0.957736,-0.40653 0.509874,-0.40652 1.067979,-1.20578 v -3.21082 q -0.296278,-0.13781 -0.654568,-0.20671 -0.35829,-0.0758 -0.709689,-0.0758 -0.978406,0 -1.529621,0.63389 -0.544325,0.6339 -0.544325,1.98438 z m 11.816668,3.38997 v -4.96782 q 0,-0.32384 -0.02756,-0.53055 -0.02067,-0.2067 -0.07579,-0.32384 -0.04823,-0.12402 -0.130914,-0.17225 -0.07579,-0.0482 -0.192925,-0.0482 -0.137804,0 -0.254937,0.0827 -0.117133,0.0827 -0.254937,0.26872 -0.130913,0.18603 -0.296278,0.49609 -0.158474,0.30317 -0.37896,0.75103 v 4.44417 h -1.09554 v -4.83691 q 0,-0.37896 -0.02756,-0.61323 -0.02067,-0.23426 -0.07579,-0.36518 -0.04823,-0.13091 -0.130914,-0.17914 -0.08268,-0.0482 -0.199815,-0.0482 -0.124024,0 -0.234267,0.0689 -0.110243,0.0689 -0.248046,0.24805 -0.130914,0.17914 -0.296278,0.4892 -0.165365,0.31006 -0.392741,0.79237 v 4.44417 h -1.10243 v -6.91775 h 0.916395 l 0.05512,1.31603 q 0.179144,-0.39274 0.344509,-0.66835 0.172255,-0.27561 0.351399,-0.44097 0.179145,-0.17226 0.378961,-0.24805 0.206705,-0.0827 0.454752,-0.0827 0.558105,0 0.847493,0.36518 0.289387,0.36518 0.289387,1.12999 0.165365,-0.35829 0.323839,-0.6339 0.158474,-0.28249 0.337619,-0.46853 0.186035,-0.19292 0.406521,-0.28939 0.220486,-0.10335 0.509874,-0.10335 1.302245,0 1.302245,2.00504 v 5.03673 z m 5.18142,-5.92556 h -2.046385 v -0.99219 h 3.259058 v 5.91867 h 2.060166 v 0.99908 h -5.5466 v -0.99908 h 2.273761 z m 0.420302,-3.89296 q 0.199815,0 0.37207,0.0758 0.172254,0.0689 0.296278,0.19981 0.130913,0.13092 0.199815,0.30317 0.07579,0.16536 0.07579,0.36518 0,0.19293 -0.07579,0.36518 -0.0689,0.17225 -0.199815,0.30317 -0.124024,0.13091 -0.296278,0.2067 -0.172255,0.0689 -0.37207,0.0689 -0.199816,0 -0.37207,-0.0689 -0.172255,-0.0758 -0.303169,-0.2067 -0.124023,-0.13092 -0.199815,-0.30317 -0.0689,-0.17225 -0.0689,-0.36518 0,-0.19982 0.0689,-0.36518 0.07579,-0.17225 0.199815,-0.30317 0.130914,-0.13091 0.303169,-0.19981 0.172254,-0.0758 0.37207,-0.0758 z m 4.981603,2.90077 h 1.067979 l 0.04823,1.11621 q 0.303169,-0.35829 0.585666,-0.59255 0.282498,-0.24116 0.551215,-0.38585 0.275607,-0.1447 0.558105,-0.19982 0.282498,-0.062 0.585666,-0.062 1.067979,0 1.612303,0.6339 0.551215,0.627 0.551215,1.8948 v 4.51307 h -1.198892 v -4.41661 q 0,-0.81304 -0.303168,-1.19889 -0.303169,-0.39274 -0.902615,-0.39274 -0.220486,0 -0.434081,0.0689 -0.206706,0.062 -0.434082,0.22738 -0.227376,0.15847 -0.496093,0.43408 -0.261827,0.2756 -0.592556,0.68902 v 4.58886 h -1.198893 z m 10.114792,0.99219 h -2.046385 v -0.99219 h 3.259058 v 5.91867 h 2.060165 v 0.99908 h -5.546599 v -0.99908 h 2.273761 z m 0.420302,-3.89296 q 0.199815,0 0.37207,0.0758 0.172254,0.0689 0.296278,0.19981 0.130913,0.13092 0.199815,0.30317 0.07579,0.16536 0.07579,0.36518 0,0.19293 -0.07579,0.36518 -0.0689,0.17225 -0.199815,0.30317 -0.124024,0.13091 -0.296278,0.2067 -0.172255,0.0689 -0.37207,0.0689 -0.199816,0 -0.37207,-0.0689 -0.172255,-0.0758 -0.303169,-0.2067 -0.124023,-0.13092 -0.199815,-0.30317 -0.0689,-0.17225 -0.0689,-0.36518 0,-0.19982 0.0689,-0.36518 0.07579,-0.17225 0.199815,-0.30317 0.130914,-0.13091 0.303169,-0.19981 0.172254,-0.0758 0.37207,-0.0758 z m 10.459301,7.93061 q 0,0.36518 -0.12402,0.65457 -0.12402,0.28938 -0.33762,0.51676 -0.2136,0.22049 -0.49609,0.37896 -0.2825,0.15847 -0.60634,0.26183 -0.31695,0.10335 -0.65457,0.15158 -0.33762,0.0482 -0.66146,0.0482 -0.70279,0 -1.295351,-0.062 -0.585666,-0.062 -1.150661,-0.19981 v -1.10243 q 0.606337,0.17225 1.205783,0.26182 0.599449,0.0896 1.191999,0.0896 0.86128,0 1.27469,-0.23427 0.41341,-0.23427 0.41341,-0.66835 0,-0.18603 -0.0689,-0.33073 -0.062,-0.15158 -0.23427,-0.2825 -0.17225,-0.1378 -0.53743,-0.28249 -0.35829,-0.1447 -0.9853,-0.33073 -0.46853,-0.13781 -0.868164,-0.31006 -0.392741,-0.17915 -0.682129,-0.4203 -0.289387,-0.24116 -0.454752,-0.565 -0.165364,-0.32384 -0.165364,-0.76481 0,-0.28939 0.130913,-0.63389 0.137804,-0.34451 0.461643,-0.64079 0.323838,-0.29628 0.875053,-0.4892 0.55122,-0.19982 1.37804,-0.19982 0.40652,0 0.90261,0.0482 0.4961,0.0413 1.03353,0.15159 v 1.06797 q -0.565,-0.1378 -1.07487,-0.19981 -0.50298,-0.0689 -0.87505,-0.0689 -0.44787,0 -0.75792,0.0689 -0.30317,0.0689 -0.496097,0.19292 -0.186035,0.11714 -0.268717,0.2825 -0.08268,0.15848 -0.08268,0.34451 0,0.18604 0.0689,0.33762 0.07579,0.15158 0.268717,0.29628 0.199817,0.1378 0.551217,0.2825 0.3514,0.1378 0.91639,0.30316 0.61323,0.17915 1.03353,0.37896 0.4203,0.19293 0.68213,0.43409 0.26183,0.24115 0.37207,0.54432 0.11713,0.30317 0.11713,0.68902 z m 7.85481,1.79145 q -0.40652,0.10335 -0.8406,0.14469 -0.43408,0.0482 -0.88195,0.0482 -1.30224,0 -1.94303,-0.58566 -0.64079,-0.59256 -0.64079,-1.81212 v -3.61046 h -1.93614 v -1.00597 h 1.93614 v -1.90169 l 1.1989,-0.31006 v 2.21175 h 3.10747 v 1.00597 h -3.10747 v 3.51399 q 0,0.74414 0.39274,1.11621 0.39963,0.36518 1.17133,0.36518 0.33073,0 0.72347,-0.0482 0.39274,-0.0551 0.81993,-0.16536 z m 2.46669,-6.82129 h 1.09554 l 0.0344,1.27469 q 0.61323,-0.73725 1.20578,-1.06798 0.59945,-0.33073 1.20578,-0.33073 1.07487,0 1.62609,0.69591 0.5581,0.69591 0.51676,2.06705 h -1.21267 q 0.0207,-0.9095 -0.26872,-1.31602 -0.2825,-0.41341 -0.83371,-0.41341 -0.24116,0 -0.4892,0.0896 -0.24116,0.0827 -0.50299,0.27561 -0.25493,0.18603 -0.54432,0.48231 -0.28939,0.29628 -0.62012,0.71658 v 4.44417 h -1.21267 z m 11.92002,6.91775 -0.0276,-0.93018 q -0.56499,0.55811 -1.15066,0.80616 -0.57878,0.24804 -1.21956,0.24804 -0.59256,0 -1.01286,-0.15158 -0.4203,-0.15159 -0.69591,-0.41341 -0.26872,-0.26872 -0.39963,-0.62701 -0.12402,-0.35829 -0.12402,-0.77859 0,-1.04042 0.7717,-1.62608 0.77859,-0.59256 2.29443,-0.59256 h 1.43316 v -0.60634 q 0,-0.61322 -0.39274,-0.9784 -0.39274,-0.37207 -1.1989,-0.37207 -0.58566,0 -1.15755,0.13091 -0.56499,0.13091 -1.17133,0.37207 v -1.08176 q 0.22738,-0.0827 0.50299,-0.15847 0.28249,-0.0827 0.59255,-0.1447 0.31006,-0.062 0.64768,-0.0965 0.33762,-0.0413 0.68213,-0.0413 0.627,0 1.12999,0.1378 0.50298,0.13781 0.84749,0.4203 0.3514,0.2825 0.53744,0.70969 0.18603,0.4272 0.18603,1.00597 v 4.76801 z m -0.13091,-3.14882 h -1.52273 q -0.44787,0 -0.7717,0.0896 -0.32384,0.0896 -0.53055,0.25493 -0.2067,0.16537 -0.31006,0.39963 -0.0965,0.22738 -0.0965,0.51677 0,0.19981 0.062,0.38585 0.062,0.17914 0.19982,0.32384 0.1378,0.1378 0.35829,0.22048 0.22048,0.0827 0.53743,0.0827 0.41341,0 0.94396,-0.24805 0.53743,-0.25494 1.12999,-0.79926 z m 9.01925,3.05236 q -0.40652,0.10335 -0.8406,0.14469 -0.43409,0.0482 -0.88195,0.0482 -1.30224,0 -1.94303,-0.58566 -0.64079,-0.59256 -0.64079,-1.81212 v -3.61046 h -1.93614 v -1.00597 h 1.93614 v -1.90169 l 1.19889,-0.31006 v 2.21175 h 3.10748 v 1.00597 h -3.10748 v 3.51399 q 0,0.74414 0.39275,1.11621 0.39963,0.36518 1.17133,0.36518 0.33073,0 0.72347,-0.0482 0.39274,-0.0551 0.81993,-0.16536 z m 4.54063,-5.8291 h -2.04639 v -0.99219 h 3.25906 v 5.91867 h 2.06017 v 0.99908 h -5.5466 v -0.99908 h 2.27376 z m 0.4203,-3.89296 q 0.19981,0 0.37207,0.0758 0.17225,0.0689 0.29628,0.19981 0.13091,0.13092 0.19981,0.30317 0.0758,0.16536 0.0758,0.36518 0,0.19293 -0.0758,0.36518 -0.0689,0.17225 -0.19981,0.30317 -0.12403,0.13091 -0.29628,0.2067 -0.17226,0.0689 -0.37207,0.0689 -0.19982,0 -0.37207,-0.0689 -0.17226,-0.0758 -0.30317,-0.2067 -0.12402,-0.13092 -0.19981,-0.30317 -0.0689,-0.17225 -0.0689,-0.36518 0,-0.19982 0.0689,-0.36518 0.0758,-0.17225 0.19981,-0.30317 0.13091,-0.13091 0.30317,-0.19981 0.17225,-0.0758 0.37207,-0.0758 z m 11.00363,6.30452 q 0,0.80616 -0.22738,1.48139 -0.22737,0.66835 -0.65456,1.15067 -0.42719,0.47542 -1.04042,0.74414 -0.61323,0.26182 -1.39182,0.26182 -0.74414,0 -1.33669,-0.22737 -0.58567,-0.23427 -0.99908,-0.68213 -0.40652,-0.44786 -0.62701,-1.10932 -0.21359,-0.66146 -0.21359,-1.52273 0,-0.80615 0.22737,-1.46761 0.22738,-0.66835 0.65457,-1.14377 0.42719,-0.48232 1.04042,-0.74414 0.61322,-0.26872 1.39182,-0.26872 0.74414,0 1.3298,0.23427 0.59256,0.22737 0.99908,0.67523 0.41341,0.44098 0.62701,1.10243 0.22048,0.66146 0.22048,1.51584 z m -1.22645,0.0551 q 0,-0.64079 -0.1447,-1.11621 -0.1378,-0.48232 -0.39963,-0.79927 -0.26182,-0.32383 -0.64078,-0.48231 -0.37207,-0.16536 -0.83372,-0.16536 -0.53743,0 -0.92328,0.21359 -0.37896,0.20671 -0.62701,0.55811 -0.24115,0.3514 -0.35829,0.81993 -0.11024,0.46164 -0.11024,0.97152 0,0.64078 0.1378,1.1231 0.1447,0.48231 0.40652,0.80615 0.26183,0.31695 0.6339,0.48231 0.37207,0.15848 0.8406,0.15848 0.53744,0 0.9164,-0.20671 0.38585,-0.2136 0.62701,-0.565 0.24804,-0.35139 0.35828,-0.81304 0.11714,-0.46853 0.11714,-0.98529 z m 2.96278,-3.45888 h 1.06797 l 0.0482,1.11621 q 0.30316,-0.35829 0.58566,-0.59255 0.2825,-0.24116 0.55122,-0.38585 0.2756,-0.1447 0.5581,-0.19982 0.2825,-0.062 0.58567,-0.062 1.06798,0 1.6123,0.6339 0.55122,0.627 0.55122,1.8948 v 4.51307 h -1.1989 v -4.41661 q 0,-0.81304 -0.30317,-1.19889 -0.30316,-0.39274 -0.90261,-0.39274 -0.22049,0 -0.43408,0.0689 -0.20671,0.062 -0.43408,0.22738 -0.22738,0.15847 -0.4961,0.43408 -0.26182,0.2756 -0.59255,0.68902 v 4.58886 h -1.19889 z"
                id="text68"
                aria-label="Administration"/>
        <rect
                style="fill:#666666;fill-rule:evenodd;stroke:#666666;stroke-width:5;stroke-linejoin:round;stroke-dasharray:none;stroke-opacity:1"
                id="rect83"
                width="58.745838"
                height="18.895956"
                x="40.654823"
                y="84.05217"/>
        <rect
                style="fill:#808080;fill-rule:evenodd;stroke-width:5;stroke-dasharray:none;paint-order:markers fill stroke;stroke:#808080;stroke-opacity:1;stroke-linejoin:round"
                id="rect82"
                width="124.61875"
                height="94.456245"
                x="40.708229"
                y="91.931023"/>
        <path
                style="font-size:14.1111px;font-family:Consolas;-inkscape-font-specification:Consolas;fill:#666666;fill-opacity:0.172549;stroke-width:5;stroke-linejoin:round;paint-order:markers fill stroke"
                d="m 81.410582,186.28332 q -1.081759,0.44786 -2.266871,0.44786 -1.908581,0 -2.935219,-1.13688 -1.019747,-1.14377 -1.019747,-3.37619 0,-1.08176 0.282497,-1.95681 0.282498,-0.87505 0.806152,-1.48139 0.523654,-0.61323 1.267794,-0.94396 0.74414,-0.33072 1.667425,-0.33072 0.627007,0 1.164442,0.11024 0.537434,0.10335 1.033527,0.32384 v 1.20578 q -0.489203,-0.26872 -1.012857,-0.40652 -0.523654,-0.1447 -1.143771,-0.1447 -0.633897,0 -1.150661,0.24116 -0.509873,0.23427 -0.868163,0.68902 -0.35829,0.44786 -0.551215,1.10243 -0.192925,0.64768 -0.192925,1.48139 0,1.75011 0.709689,2.63894 0.709689,0.88883 2.080836,0.88883 0.578776,0 1.10932,-0.13091 0.530544,-0.1378 1.019747,-0.37896 z m 8.027067,-3.17637 q 0,0.80615 -0.227377,1.48139 -0.227376,0.66834 -0.654567,1.15066 -0.427192,0.47542 -1.040418,0.74414 -0.613227,0.26182 -1.391818,0.26182 -0.74414,0 -1.336696,-0.22737 -0.585665,-0.23427 -0.999077,-0.68213 -0.406521,-0.44786 -0.627007,-1.10932 -0.213595,-0.66146 -0.213595,-1.52273 0,-0.80615 0.227376,-1.46761 0.227376,-0.66835 0.654568,-1.14377 0.427191,-0.48231 1.040418,-0.74414 0.613226,-0.26872 1.391817,-0.26872 0.74414,0 1.329806,0.23427 0.592556,0.22737 0.999077,0.67524 0.413411,0.44097 0.627007,1.10243 0.220486,0.66145 0.220486,1.51584 z m -1.226453,0.0551 q 0,-0.64079 -0.144694,-1.11621 -0.137804,-0.48232 -0.399631,-0.79926 -0.261827,-0.32384 -0.640787,-0.48232 -0.37207,-0.16536 -0.833713,-0.16536 -0.537434,0 -0.923285,0.21359 -0.37896,0.20671 -0.627007,0.55811 -0.241156,0.3514 -0.358289,0.81993 -0.110243,0.46164 -0.110243,0.97152 0,0.64079 0.137803,1.1231 0.144694,0.48231 0.406521,0.80615 0.261828,0.31695 0.633898,0.48231 0.37207,0.15848 0.840602,0.15848 0.537435,0 0.916395,-0.20671 0.38585,-0.21359 0.627007,-0.56499 0.248046,-0.3514 0.358289,-0.81305 0.117134,-0.46853 0.117134,-0.98529 z m 2.962779,-3.45888 h 1.067979 l 0.04823,1.11621 q 0.303169,-0.35828 0.585666,-0.59255 0.282498,-0.24116 0.551215,-0.38585 0.275607,-0.1447 0.558105,-0.19982 0.282498,-0.062 0.585666,-0.062 1.067979,0 1.612303,0.6339 0.551215,0.62701 0.551215,1.8948 v 4.51307 h -1.198892 v -4.41661 q 0,-0.81304 -0.303168,-1.19889 -0.303169,-0.39274 -0.902615,-0.39274 -0.220486,0 -0.434081,0.0689 -0.206706,0.062 -0.434082,0.22738 -0.227376,0.15847 -0.496093,0.43408 -0.261827,0.27561 -0.592556,0.68902 v 4.58886 h -1.198893 z m 13.897505,-1.70187 q -0.94396,-0.19982 -1.62608,-0.19982 -1.6192,0 -1.6192,1.69499 v 1.21267 h 3.03168 v 0.99908 h -3.03168 v 4.9127 h -1.21956 v -4.9127 h -2.22553 v -0.99908 h 2.22553 v -1.14377 q 0,-2.76296 2.8801,-2.76296 0.71658,0 1.58474,0.16536 z m -7.241585,1.70187 z m 11.217225,0.99219 h -2.04639 v -0.99219 h 3.25906 v 5.91867 h 2.06016 v 0.99908 h -5.54659 v -0.99908 h 2.27376 z m 0.4203,-3.89295 q 0.19981,0 0.37207,0.0758 0.17225,0.0689 0.29628,0.19981 0.13091,0.13092 0.19981,0.30317 0.0758,0.16537 0.0758,0.36518 0,0.19293 -0.0758,0.36518 -0.0689,0.17226 -0.19981,0.30317 -0.12403,0.13091 -0.29628,0.20671 -0.17226,0.0689 -0.37207,0.0689 -0.19982,0 -0.37207,-0.0689 -0.17226,-0.0758 -0.30317,-0.20671 -0.12402,-0.13091 -0.19982,-0.30317 -0.0689,-0.17225 -0.0689,-0.36518 0,-0.19981 0.0689,-0.36518 0.0758,-0.17225 0.19982,-0.30317 0.13091,-0.13091 0.30317,-0.19981 0.17225,-0.0758 0.37207,-0.0758 z m 4.6302,6.50433 q 0,-0.88194 0.24116,-1.56407 0.24116,-0.68902 0.68213,-1.15755 0.44786,-0.47542 1.06798,-0.71658 0.627,-0.24805 1.39181,-0.24805 0.33073,0 0.64768,0.0413 0.32384,0.0413 0.6339,0.13092 v -2.90766 h 1.20578 v 9.73583 h -1.07487 l -0.0413,-1.30913 q -0.50298,0.73036 -1.08865,1.08176 -0.58566,0.35139 -1.26779,0.35139 -0.59256,0 -1.04731,-0.24804 -0.44786,-0.24805 -0.75103,-0.69591 -0.29628,-0.45475 -0.44786,-1.08865 -0.15159,-0.6339 -0.15159,-1.4056 z m 1.22646,-0.0758 q 0,1.25401 0.36518,1.87413 0.37207,0.61323 1.0473,0.61323 0.45476,0 0.95774,-0.40652 0.50987,-0.40653 1.06798,-1.20579 v -3.21082 q -0.29628,-0.13781 -0.65457,-0.20671 -0.35829,-0.0758 -0.70969,-0.0758 -0.97841,0 -1.52962,0.6339 -0.54432,0.63389 -0.54432,1.98437 z m 12.72617,-0.43408 q 0,0.25493 -0.007,0.42719 -0.007,0.17225 -0.0207,0.32384 h -4.85758 q 0,1.06109 0.59255,1.63297 0.59256,0.565 1.70877,0.565 0.30317,0 0.60634,-0.0207 0.30316,-0.0276 0.58566,-0.0689 0.2825,-0.0413 0.53744,-0.0896 0.26182,-0.0551 0.48231,-0.11713 v 0.9853 q -0.4892,0.1378 -1.10932,0.22048 -0.61323,0.0896 -1.27468,0.0896 -0.88884,0 -1.52963,-0.24115 -0.64078,-0.24116 -1.05419,-0.69591 -0.40653,-0.46164 -0.60634,-1.1231 -0.19293,-0.66835 -0.19293,-1.50895 0,-0.73036 0.20671,-1.37804 0.2136,-0.65457 0.61323,-1.14377 0.40652,-0.49609 0.99218,-0.78548 0.58567,-0.28939 1.32981,-0.28939 0.72347,0 1.28157,0.22738 0.55811,0.22737 0.93707,0.64768 0.38585,0.41341 0.57877,1.01285 0.19982,0.59256 0.19982,1.32981 z m -1.24712,-0.17226 q 0.0207,-0.46164 -0.0896,-0.8406 -0.11024,-0.38585 -0.34451,-0.66146 -0.22737,-0.2756 -0.57188,-0.42719 -0.34451,-0.15847 -0.79926,-0.15847 -0.39274,0 -0.71658,0.15158 -0.32384,0.15159 -0.55811,0.42719 -0.23426,0.27561 -0.37896,0.66146 -0.14469,0.38585 -0.17914,0.84749 z m 3.16259,-2.92144 h 1.06798 l 0.0482,1.11621 q 0.30317,-0.35828 0.58566,-0.59255 0.2825,-0.24116 0.55122,-0.38585 0.27561,-0.1447 0.5581,-0.19982 0.2825,-0.062 0.58567,-0.062 1.06798,0 1.6123,0.6339 0.55122,0.62701 0.55122,1.8948 v 4.51307 h -1.19889 v -4.41661 q 0,-0.81304 -0.30317,-1.19889 -0.30317,-0.39274 -0.90262,-0.39274 -0.22048,0 -0.43408,0.0689 -0.2067,0.062 -0.43408,0.22738 -0.22738,0.15847 -0.49609,0.43408 -0.26183,0.27561 -0.59256,0.68902 v 4.58886 h -1.19889 z m 13.33251,6.82129 q -0.40652,0.10335 -0.8406,0.14469 -0.43409,0.0482 -0.88195,0.0482 -1.30224,0 -1.94303,-0.58566 -0.64079,-0.59256 -0.64079,-1.81212 v -3.61046 h -1.93614 v -1.00597 h 1.93614 v -1.90169 l 1.1989,-0.31005 v 2.21174 h 3.10747 v 1.00597 h -3.10747 v 3.514 q 0,0.74414 0.39274,1.11621 0.39963,0.36518 1.17133,0.36518 0.33073,0 0.72347,-0.0482 0.39274,-0.0551 0.81993,-0.16537 z m 4.54063,-5.8291 h -2.04638 v -0.99219 h 3.25906 v 5.91867 h 2.06016 v 0.99908 h -5.5466 v -0.99908 h 2.27376 z m 0.4203,-3.89295 q 0.19982,0 0.37207,0.0758 0.17226,0.0689 0.29628,0.19981 0.13092,0.13092 0.19982,0.30317 0.0758,0.16537 0.0758,0.36518 0,0.19293 -0.0758,0.36518 -0.0689,0.17226 -0.19982,0.30317 -0.12402,0.13091 -0.29628,0.20671 -0.17225,0.0689 -0.37207,0.0689 -0.19981,0 -0.37207,-0.0689 -0.17225,-0.0758 -0.30316,-0.20671 -0.12403,-0.13091 -0.19982,-0.30317 -0.0689,-0.17225 -0.0689,-0.36518 0,-0.19981 0.0689,-0.36518 0.0758,-0.17225 0.19982,-0.30317 0.13091,-0.13091 0.30316,-0.19981 0.17226,-0.0758 0.37207,-0.0758 z m 10.82448,5.99446 q 0,0.25493 -0.007,0.42719 -0.007,0.17225 -0.0207,0.32384 h -4.85758 q 0,1.06109 0.59256,1.63297 0.59255,0.565 1.70876,0.565 0.30317,0 0.60634,-0.0207 0.30317,-0.0276 0.58567,-0.0689 0.28249,-0.0413 0.53743,-0.0896 0.26183,-0.0551 0.48231,-0.11713 v 0.9853 q -0.4892,0.1378 -1.10932,0.22048 -0.61322,0.0896 -1.27468,0.0896 -0.88883,0 -1.52962,-0.24115 -0.64079,-0.24116 -1.0542,-0.69591 -0.40652,-0.46164 -0.60634,-1.1231 -0.19292,-0.66835 -0.19292,-1.50895 0,-0.73036 0.2067,-1.37804 0.2136,-0.65457 0.61323,-1.14377 0.40652,-0.49609 0.99219,-0.78548 0.58566,-0.28939 1.3298,-0.28939 0.72347,0 1.28158,0.22738 0.5581,0.22737 0.93706,0.64768 0.38585,0.41341 0.57878,1.01285 0.19981,0.59256 0.19981,1.32981 z m -1.24712,-0.17226 q 0.0207,-0.46164 -0.0896,-0.8406 -0.11025,-0.38585 -0.34451,-0.66146 -0.22738,-0.2756 -0.57189,-0.42719 -0.34451,-0.15847 -0.79926,-0.15847 -0.39274,0 -0.71658,0.15158 -0.32384,0.15159 -0.5581,0.42719 -0.23427,0.27561 -0.37896,0.66146 -0.1447,0.38585 -0.17915,0.84749 z m 5.51904,-4.75422 h -2.04639 v -0.9853 h 3.25906 v 8.73675 h 2.06016 v 0.99908 h -5.5466 v -0.99908 h 2.27377 z"
                id="text87"
                aria-label="Confidentiel"
                inkscape:export-filename="admin_expo.svg"
                inkscape:export-xdpi="96"
                inkscape:export-ydpi="96"/>
    </g>
</svg>
