<?xml version="1.0" encoding="UTF-8" standalone="no"?>
<!-- Created with Inkscape (http://www.inkscape.org/) -->

<svg
        xmlns:inkscape="http://www.inkscape.org/namespaces/inkscape"
        xmlns:sodipodi="http://sodipodi.sourceforge.net/DTD/sodipodi-0.dtd"
        width="210mm"
        height="297mm"
        viewBox="0 0 210 297"
        version="1.1"
        id="svg1"
        inkscape:version="1.3.2 (091e20e, 2023-11-25, custom)"
        sodipodi:docname="rapport.svg"
        xmlns="http://www.w3.org/2000/svg"
>
    <sodipodi:namedview
            id="namedview1"
            pagecolor="#505050"
            bordercolor="#eeeeee"
            borderopacity="1"
            inkscape:showpageshadow="0"
            inkscape:pageopacity="0"
            inkscape:pagecheckerboard="0"
            inkscape:deskcolor="#505050"
            inkscape:document-units="mm"
            inkscape:zoom="0.60235022"
            inkscape:cx="215.82129"
            inkscape:cy="530.42232"
            inkscape:window-width="1920"
            inkscape:window-height="1009"
            inkscape:window-x="-8"
            inkscape:window-y="-8"
            inkscape:window-maximized="1"
            inkscape:current-layer="layer1"/>
    <defs
            id="defs1">
        <inkscape:path-effect
                effect="bspline"
                id="path-effect59"
                is_visible="true"
                lpeversion="1.3"
                weight="33.333333"
                steps="2"
                helper_size="0"
                apply_no_weight="true"
                apply_with_weight="true"
                only_selected="false"
                uniform="false"/>
        <linearGradient
                id="swatch50">
            <stop
                    style="stop-color:#808080;stop-opacity:1;"
                    offset="0.08125"
                    id="stop50"/>
        </linearGradient>
        <inkscape:path-effect
                effect="powerstroke"
                id="path-effect41"
                is_visible="true"
                lpeversion="1.3"
                scale_width="1"
                interpolator_type="CentripetalCatmullRom"
                interpolator_beta="0.75"
                start_linecap_type="round"
                end_linecap_type="round"
                offset_points="6.4468466,0"
                linejoin_type="spiro"
                miter_limit="4"
                not_jump="true"
                sort_points="true"
                message="&lt;b&gt;Ctrl + clic&lt;/b&gt; puis déplacement sur un nœud existant"/>
        <inkscape:path-effect
                effect="simplify"
                id="path-effect40"
                is_visible="true"
                lpeversion="1.3"
                threshold="0.012"
                steps="1"
                smooth_angles="0"
                helper_size="0"
                simplify_individual_paths="false"
                simplify_just_coalesce="false"
                step="1"/>
        <inkscape:path-effect
                effect="powerstroke"
                id="path-effect39"
                is_visible="true"
                lpeversion="1.3"
                scale_width="1"
                interpolator_type="CentripetalCatmullRom"
                interpolator_beta="0.75"
                start_linecap_type="round"
                end_linecap_type="round"
                offset_points="6.3928077,0"
                linejoin_type="spiro"
                miter_limit="4"
                not_jump="true"
                sort_points="true"
                message="&lt;b&gt;Ctrl + clic&lt;/b&gt; puis déplacement sur un nœud existant"/>
        <inkscape:path-effect
                effect="simplify"
                id="path-effect38"
                is_visible="true"
                lpeversion="1.3"
                threshold="0.012"
                steps="1"
                smooth_angles="0"
                helper_size="0"
                simplify_individual_paths="false"
                simplify_just_coalesce="false"
                step="1"/>
        <inkscape:path-effect
                effect="powerstroke"
                id="path-effect37"
                is_visible="true"
                lpeversion="1.3"
                scale_width="1"
                interpolator_type="CentripetalCatmullRom"
                interpolator_beta="0.75"
                start_linecap_type="round"
                end_linecap_type="round"
                offset_points="54.5,0"
                linejoin_type="spiro"
                miter_limit="4"
                not_jump="true"
                sort_points="true"
                message="&lt;b&gt;Ctrl + clic&lt;/b&gt; puis déplacement sur un nœud existant"/>
        <inkscape:path-effect
                effect="simplify"
                id="path-effect36"
                is_visible="true"
                lpeversion="1.3"
                threshold="0.012"
                steps="1"
                smooth_angles="0"
                helper_size="0"
                simplify_individual_paths="false"
                simplify_just_coalesce="false"
                step="1"/>
        <inkscape:path-effect
                effect="powerstroke"
                id="path-effect35"
                is_visible="true"
                lpeversion="1.3"
                scale_width="1"
                interpolator_type="CentripetalCatmullRom"
                interpolator_beta="0.75"
                start_linecap_type="round"
                end_linecap_type="round"
                offset_points="60,0"
                linejoin_type="spiro"
                miter_limit="4"
                not_jump="true"
                sort_points="true"
                message="&lt;b&gt;Ctrl + clic&lt;/b&gt; puis déplacement sur un nœud existant"/>
        <inkscape:path-effect
                effect="simplify"
                id="path-effect34"
                is_visible="true"
                lpeversion="1.3"
                threshold="0.012"
                steps="1"
                smooth_angles="0"
                helper_size="0"
                simplify_individual_paths="false"
                simplify_just_coalesce="false"
                step="1"/>
        <inkscape:path-effect
                effect="powerstroke"
                id="path-effect33"
                is_visible="true"
                lpeversion="1.3"
                scale_width="1"
                interpolator_type="CentripetalCatmullRom"
                interpolator_beta="0.75"
                start_linecap_type="round"
                end_linecap_type="round"
                offset_points="83,0.14491224"
                linejoin_type="spiro"
                miter_limit="4"
                not_jump="true"
                sort_points="true"
                message="&lt;b&gt;Ctrl + clic&lt;/b&gt; puis déplacement sur un nœud existant"/>
        <inkscape:path-effect
                effect="simplify"
                id="path-effect32"
                is_visible="true"
                lpeversion="1.3"
                threshold="0.012"
                steps="1"
                smooth_angles="0"
                helper_size="0"
                simplify_individual_paths="false"
                simplify_just_coalesce="false"
                step="1"/>
        <inkscape:path-effect
                effect="powerstroke"
                id="path-effect31"
                is_visible="true"
                lpeversion="1.3"
                scale_width="1"
                interpolator_type="CentripetalCatmullRom"
                interpolator_beta="0.75"
                start_linecap_type="round"
                end_linecap_type="round"
                offset_points="63.424775,0.14491224"
                linejoin_type="spiro"
                miter_limit="4"
                not_jump="true"
                sort_points="true"
                message="&lt;b&gt;Ctrl + clic&lt;/b&gt; puis déplacement sur un nœud existant"/>
        <inkscape:path-effect
                effect="simplify"
                id="path-effect30"
                is_visible="true"
                lpeversion="1.3"
                threshold="0.012"
                steps="1"
                smooth_angles="0"
                helper_size="0"
                simplify_individual_paths="false"
                simplify_just_coalesce="false"
                step="1"/>
        <inkscape:path-effect
                effect="powerstroke"
                id="path-effect29"
                is_visible="true"
                lpeversion="1.3"
                scale_width="1"
                interpolator_type="CentripetalCatmullRom"
                interpolator_beta="0.75"
                start_linecap_type="round"
                end_linecap_type="round"
                offset_points="22.584838,0.14491224"
                linejoin_type="spiro"
                miter_limit="4"
                not_jump="true"
                sort_points="true"
                message="&lt;b&gt;Ctrl + clic&lt;/b&gt; puis déplacement sur un nœud existant"/>
        <inkscape:path-effect
                effect="simplify"
                id="path-effect28"
                is_visible="true"
                lpeversion="1.3"
                threshold="0.012"
                steps="1"
                smooth_angles="0"
                helper_size="0"
                simplify_individual_paths="false"
                simplify_just_coalesce="false"
                step="1"/>
        <inkscape:path-effect
                effect="powerstroke"
                id="path-effect27"
                is_visible="true"
                lpeversion="1.3"
                scale_width="1"
                interpolator_type="CentripetalCatmullRom"
                interpolator_beta="0.75"
                start_linecap_type="round"
                end_linecap_type="round"
                offset_points="5.7110562,0.14491224"
                linejoin_type="spiro"
                miter_limit="4"
                not_jump="true"
                sort_points="true"
                message="&lt;b&gt;Ctrl + clic&lt;/b&gt; puis déplacement sur un nœud existant"/>
        <inkscape:path-effect
                effect="simplify"
                id="path-effect26"
                is_visible="true"
                lpeversion="1.3"
                threshold="0.012"
                steps="1"
                smooth_angles="0"
                helper_size="0"
                simplify_individual_paths="false"
                simplify_just_coalesce="false"
                step="1"/>
        <inkscape:path-effect
                effect="bspline"
                id="path-effect21"
                is_visible="true"
                lpeversion="1.3"
                weight="33.333333"
                steps="2"
                helper_size="0"
                apply_no_weight="true"
                apply_with_weight="true"
                only_selected="false"
                uniform="false"/>
    </defs>
    <g
            inkscape:label="Calque 1"
            inkscape:groupmode="layer"
            id="layer1">
        <path
                style="font-size:14.1111px;font-family:Consolas;-inkscape-font-specification:Consolas;fill:#808080;stroke-width:0.264583"
                d="M 84.776078,270.55292 H 83.39115 l -1.343586,-2.8801 q -0.151584,-0.33073 -0.310058,-0.54432 -0.158475,-0.22049 -0.34451,-0.34451 -0.179144,-0.13092 -0.39963,-0.18604 -0.213596,-0.0551 -0.482313,-0.0551 h -0.578776 v 4.01009 h -1.226453 v -9.00548 h 2.411565 q 0.785481,0 1.350476,0.17226 0.564996,0.17225 0.923285,0.48231 0.36518,0.31006 0.530545,0.75103 0.172254,0.43408 0.172254,0.96463 0,0.4203 -0.124023,0.79926 -0.124023,0.37207 -0.37207,0.68213 -0.241157,0.30317 -0.606336,0.53054 -0.35829,0.22049 -0.826823,0.33073 0.37896,0.13092 0.640788,0.46164 0.268717,0.32384 0.544324,0.86817 z m -1.963703,-6.5319 q 0,-0.72347 -0.454753,-1.08176 -0.447862,-0.35829 -1.267794,-0.35829 h -1.157551 v 2.97656 h 0.992187 q 0.434082,0 0.778591,-0.0965 0.351399,-0.10335 0.592556,-0.29628 0.248046,-0.19981 0.37896,-0.48231 0.137804,-0.28939 0.137804,-0.66146 z m 8.027066,6.5319 -0.02756,-0.93018 q -0.564995,0.55811 -1.150661,0.80615 -0.578775,0.24805 -1.219563,0.24805 -0.592556,0 -1.012857,-0.15158 -0.420301,-0.15159 -0.695909,-0.41341 -0.268717,-0.26872 -0.399631,-0.62701 -0.124023,-0.35829 -0.124023,-0.77859 0,-1.04042 0.771701,-1.62609 0.778591,-0.59255 2.294432,-0.59255 h 1.433158 v -0.60634 q 0,-0.61322 -0.39274,-0.9784 -0.392741,-0.37207 -1.198893,-0.37207 -0.585665,0 -1.157551,0.13091 -0.564995,0.13091 -1.171331,0.37207 v -1.08176 q 0.227376,-0.0827 0.502983,-0.15847 0.282498,-0.0827 0.592556,-0.1447 0.310059,-0.062 0.647678,-0.0965 0.337619,-0.0413 0.682128,-0.0413 0.627007,0 1.129991,0.1378 0.502983,0.13781 0.847492,0.4203 0.3514,0.2825 0.537435,0.70969 0.186035,0.42719 0.186035,1.00597 v 4.76801 z m -0.130914,-3.14882 h -1.522731 q -0.447862,0 -0.7717,0.0896 -0.323839,0.0896 -0.530545,0.25493 -0.206705,0.16537 -0.310058,0.39963 -0.09646,0.22738 -0.09646,0.51677 0,0.19981 0.06201,0.38585 0.06201,0.17914 0.199815,0.32384 0.137804,0.1378 0.35829,0.22048 0.220486,0.0827 0.537434,0.0827 0.413412,0 0.943956,-0.24804 0.537434,-0.25494 1.12999,-0.79926 z m 9.356873,-0.43408 q 0,0.92329 -0.261828,1.6123 -0.254937,0.68902 -0.709689,1.14378 -0.454752,0.45475 -1.074869,0.68212 -0.620116,0.22738 -1.343586,0.22738 -0.330729,0 -0.661458,-0.0344 -0.323839,-0.0344 -0.661458,-0.11713 v 2.89387 H 94.15362 v -9.74272 h 1.067979 l 0.07579,1.15755 q 0.516764,-0.70969 1.10243,-0.99218 0.585665,-0.28939 1.267794,-0.28939 0.592556,0 1.040418,0.24804 0.447862,0.24805 0.75103,0.7028 0.303168,0.44787 0.454752,1.08865 0.151585,0.6339 0.151585,1.41938 z m -1.226454,0.0551 q 0,-0.54432 -0.08268,-0.99907 -0.07579,-0.45476 -0.248047,-0.7786 -0.172254,-0.32383 -0.440971,-0.50298 -0.268718,-0.18603 -0.640788,-0.18603 -0.227376,0 -0.461642,0.0758 -0.234266,0.0689 -0.489203,0.24115 -0.248047,0.16537 -0.530545,0.44787 -0.275607,0.2756 -0.592556,0.68902 v 3.35552 q 0.330729,0.1378 0.695909,0.22048 0.36518,0.0758 0.716579,0.0758 0.971517,0 1.522731,-0.65456 0.551215,-0.66146 0.551215,-1.98438 z m 8.984804,-0.0551 q 0,0.92329 -0.26183,1.6123 -0.25494,0.68902 -0.70969,1.14378 -0.45475,0.45475 -1.07487,0.68212 -0.62011,0.22738 -1.34358,0.22738 -0.33073,0 -0.66146,-0.0344 -0.32384,-0.0344 -0.66146,-0.11713 v 2.89387 h -1.19889 v -9.74272 h 1.06798 l 0.0758,1.15755 q 0.51676,-0.70969 1.10243,-0.99218 0.58567,-0.28939 1.26779,-0.28939 0.59256,0 1.04042,0.24804 0.44786,0.24805 0.75103,0.7028 0.30317,0.44787 0.45475,1.08865 0.15159,0.6339 0.15159,1.41938 z m -1.22645,0.0551 q 0,-0.54432 -0.0827,-0.99907 -0.0758,-0.45476 -0.24804,-0.7786 -0.17226,-0.32383 -0.44098,-0.50298 -0.26871,-0.18603 -0.64078,-0.18603 -0.22738,0 -0.46164,0.0758 -0.23427,0.0689 -0.48921,0.24115 -0.24804,0.16537 -0.53054,0.44787 -0.27561,0.2756 -0.59256,0.68902 v 3.35552 q 0.33073,0.1378 0.69591,0.22048 0.36518,0.0758 0.71658,0.0758 0.97152,0 1.52273,-0.65456 0.55122,-0.66146 0.55122,-1.98438 z m 9.09504,0.0138 q 0,0.80615 -0.22738,1.48139 -0.22737,0.66835 -0.65456,1.15066 -0.4272,0.47543 -1.04042,0.74414 -0.61323,0.26183 -1.39182,0.26183 -0.74414,0 -1.3367,-0.22738 -0.58566,-0.23426 -0.99907,-0.68212 -0.40652,-0.44787 -0.62701,-1.10932 -0.21359,-0.66146 -0.21359,-1.52273 0,-0.80616 0.22737,-1.46761 0.22738,-0.66835 0.65457,-1.14377 0.42719,-0.48232 1.04042,-0.74415 0.61322,-0.26871 1.39181,-0.26871 0.74414,0 1.32981,0.23426 0.59256,0.22738 0.99908,0.67524 0.41341,0.44097 0.627,1.10243 0.22049,0.66146 0.22049,1.51584 z m -1.22645,0.0551 q 0,-0.64078 -0.1447,-1.11621 -0.1378,-0.48231 -0.39963,-0.79926 -0.26182,-0.32384 -0.64078,-0.48231 -0.37207,-0.16536 -0.83372,-0.16536 -0.53743,0 -0.92328,0.21359 -0.37896,0.20671 -0.62701,0.55811 -0.24116,0.3514 -0.35829,0.81993 -0.11024,0.46164 -0.11024,0.97151 0,0.64079 0.1378,1.1231 0.1447,0.48232 0.40652,0.80616 0.26183,0.31694 0.6339,0.48231 0.37207,0.15847 0.8406,0.15847 0.53744,0 0.9164,-0.2067 0.38585,-0.2136 0.627,-0.565 0.24805,-0.3514 0.35829,-0.81304 0.11714,-0.46853 0.11714,-0.9853 z m 3.24527,-3.45887 h 1.09554 l 0.0344,1.27469 q 0.61323,-0.73725 1.20579,-1.06798 0.59944,-0.33073 1.20578,-0.33073 1.07487,0 1.62608,0.69591 0.55811,0.69591 0.51677,2.06705 h -1.21268 q 0.0207,-0.9095 -0.26871,-1.31602 -0.2825,-0.41341 -0.83372,-0.41341 -0.24115,0 -0.4892,0.0896 -0.24115,0.0827 -0.50298,0.27561 -0.25494,0.18603 -0.54433,0.48231 -0.28938,0.29628 -0.62011,0.71658 v 4.44417 h -1.21268 z m 13.05002,6.82128 q -0.40652,0.10336 -0.84061,0.1447 -0.43408,0.0482 -0.88194,0.0482 -1.30224,0 -1.94303,-0.58567 -0.64079,-0.59255 -0.64079,-1.81211 v -3.61046 h -1.93614 v -1.00597 h 1.93614 v -1.90169 l 1.19889,-0.31006 v 2.21175 h 3.10748 v 1.00597 h -3.10748 v 3.51399 q 0,0.74414 0.39274,1.11621 0.39963,0.36518 1.17134,0.36518 0.33072,0 0.72346,-0.0482 0.39275,-0.0551 0.81994,-0.16536 z"
                id="text68"
                aria-label="Rapport"/>
        <rect
                style="fill:#4d4d4d;fill-opacity:0;stroke:#808080;stroke-width:5;stroke-linecap:butt;stroke-linejoin:miter;stroke-dasharray:none;stroke-opacity:1;paint-order:normal"
                id="rect70"
                width="132.02708"
                height="186.79584"
                x="38.719959"
                y="59.434006"/>
        <rect
                style="fill:#808080;fill-rule:evenodd;stroke-width:0.264583"
                id="rect82"
                width="107.01472"
                height="9.728611"
                x="51.449383"
                y="88.118759"/>
        <rect
                style="fill:#808080;fill-rule:evenodd;stroke-width:0.264583"
                id="rect82-0"
                width="107.01472"
                height="9.728611"
                x="51.266342"
                y="106.24413"
                inkscape:transform-center-x="-7.6729166"
                inkscape:transform-center-y="-9.7895833"/>
        <rect
                style="fill:#808080;fill-rule:evenodd;stroke-width:0.264583"
                id="rect82-8"
                width="107.01472"
                height="9.728611"
                x="51.3302"
                y="124.56847"/>
        <rect
                style="fill:#808080;fill-rule:evenodd;stroke-width:0.264583"
                id="rect82-3"
                width="107.01472"
                height="9.728611"
                x="51.359318"
                y="142.49109"
                inkscape:export-filename="rapport_exp.svg"
                inkscape:export-xdpi="96"
                inkscape:export-ydpi="96"/>
    </g>
</svg>
