<?xml version="1.0" encoding="UTF-8" standalone="no"?>
<!-- Created with Inkscape (http://www.inkscape.org/) -->

<svg
        xmlns:inkscape="http://www.inkscape.org/namespaces/inkscape"
        xmlns:sodipodi="http://sodipodi.sourceforge.net/DTD/sodipodi-0.dtd"
        xmlns:xlink="http://www.w3.org/1999/xlink"
        xmlns:rdf="http://www.w3.org/1999/02/22-rdf-syntax-ns#"
        xmlns:cc="http://creativecommons.org/ns#"
        xmlns:dc="http://purl.org/dc/elements/1.1/"
        version="1.1"
        id="svg1"
        width="4223"
        height="4233"
        viewBox="0 0 4223 4233"
        sodipodi:docname="131UHG1.svg"
        inkscape:version="1.3.2 (091e20e, 2023-11-25, custom)"
        xml:space="preserve"
        xmlns="http://www.w3.org/2000/svg"><title
     id="title51">Uh?</title>
    <defs
            id="defs1"><linearGradient
       id="linearGradient12"
       inkscape:collect="always"><stop
         style="stop-color:#494949;stop-opacity:1;"
         offset="0.54018688"
         id="stop12" /><stop
            style="stop-color:#070707;stop-opacity:0;"
            offset="1"
            id="stop13"/></linearGradient>
        <linearGradient
                id="linearGradient7"
                inkscape:collect="always"><stop
         style="stop-color:#4d4d4d;stop-opacity:1;"
         offset="0.62803733"
         id="stop7" />
            <stop
                    style="stop-color:#2f2f2f;stop-opacity:0.93963253;"
                    offset="1"
                    id="stop8"/></linearGradient>
        <linearGradient
                id="linearGradient5"
                inkscape:collect="always"><stop
         style="stop-color:#444444;stop-opacity:1;"
         offset="0.66915888"
         id="stop5" />
            <stop
                    style="stop-color:#444444;stop-opacity:0;"
                    offset="1"
                    id="stop6"/></linearGradient>
        <linearGradient
                id="linearGradient3"
                inkscape:collect="always"><stop
         style="stop-color:#4d4d4d;stop-opacity:1;"
         offset="0.86915886"
         id="stop3" />
            <stop
                    style="stop-color:#4d4d4d;stop-opacity:0;"
                    offset="1"
                    id="stop4"/></linearGradient>
        <inkscape:path-effect
                effect="bspline"
                id="path-effect48"
                is_visible="true"
                lpeversion="1.3"
                weight="33.333333"
                steps="2"
                helper_size="0"
                apply_no_weight="true"
                apply_with_weight="true"
                only_selected="false"
                uniform="false"/>
        <inkscape:path-effect
                effect="bspline"
                id="path-effect46"
                is_visible="true"
                lpeversion="1.3"
                weight="33.333333"
                steps="2"
                helper_size="0"
                apply_no_weight="true"
                apply_with_weight="true"
                only_selected="false"
                uniform="false"/>
        <inkscape:path-effect
                effect="spiro"
                id="path-effect45"
                is_visible="true"
                lpeversion="1"/>
        <inkscape:path-effect
                effect="spiro"
                id="path-effect44"
                is_visible="true"
                lpeversion="1"/>
        <linearGradient
                inkscape:collect="always"
                xlink:href="#linearGradient3"
                id="linearGradient4"
                x1="938.73153"
                y1="1235.4425"
                x2="2264.2128"
                y2="1235.4425"
                gradientUnits="userSpaceOnUse"/>
        <linearGradient
                inkscape:collect="always"
                xlink:href="#linearGradient5"
                id="linearGradient6"
                x1="1585.8716"
                y1="1241.1333"
                x2="2263.5876"
                y2="1241.1333"
                gradientUnits="userSpaceOnUse"/>
        <linearGradient
                inkscape:collect="always"
                xlink:href="#linearGradient7"
                id="linearGradient8"
                x1="447.32452"
                y1="2362.8616"
                x2="2352.8497"
                y2="2362.8616"
                gradientUnits="userSpaceOnUse"/>
        <linearGradient
                inkscape:collect="always"
                xlink:href="#linearGradient12"
                id="linearGradient13"
                x1="1164.9862"
                y1="3167.4626"
                x2="2040.3271"
                y2="3167.4626"
                gradientUnits="userSpaceOnUse"/></defs>
    <sodipodi:namedview
            id="namedview1"
            pagecolor="#505050"
            bordercolor="#ffffff"
            borderopacity="1"
            inkscape:showpageshadow="0"
            inkscape:pageopacity="0"
            inkscape:pagecheckerboard="1"
            inkscape:deskcolor="#505050"
            showgrid="false"
            showguides="false"
            inkscape:zoom="0.08838835"
            inkscape:cx="-752.36159"
            inkscape:cy="2856.7113"
            inkscape:window-width="1920"
            inkscape:window-height="1009"
            inkscape:window-x="-8"
            inkscape:window-y="-8"
            inkscape:window-maximized="1"
            inkscape:current-layer="layer4"/>
    <g
            inkscape:groupmode="layer"
            id="layer1"
            inkscape:label="SCP131SVG "
            style="display:inline"><path
       style="opacity:1;fill:url(#linearGradient8);stroke-width:0.873711;fill-opacity:1"
       id="path11"
       sodipodi:type="arc"
       sodipodi:cx="1400.1013"
       sodipodi:cy="2362.8616"
       sodipodi:rx="952.77679"
       sodipodi:ry="767.67047"
       sodipodi:start="0.0077207745"
       sodipodi:end="6.1622592"
       sodipodi:open="true"
       sodipodi:arc-type="arc"
       d="m 2352.8497,2368.7885 a 952.77679,767.67047 0 0 1 -929.4639,761.5143 952.77679,767.67047 0 0 1 -974.5354,-724.0122 952.77679,767.67047 0 0 1 866.7893,-808.0772 952.77679,767.67047 0 0 1 1030.2806,672.0429" />
        <path
                style="opacity:1;fill:url(#linearGradient13);stroke-width:1.21051;fill-opacity:1"
                d="m 1164.9862,3149.2388 35.6332,6.41 40.2812,4.8076 41.8304,4.8075 43.3798,3.205 h 46.4784 54.2246 l 54.2246,-3.205 63.5205,-8.0125 38.7318,-4.8076 74.3653,-14.4228 66.6188,-16.0251 68.1682,-25.6402 60.4217,-22.4353 69.7174,-32.0504 38.732,-22.4352 32.5347,-17.6277 34.0841,-22.4353 12.3942,-8.0126 -13.9434,70.5108 -20.1406,55.6875 -15.1055,29.6466 -14.3307,22.4353 -21.3027,25.6402 -22.8518,24.8391 -30.2108,25.6403 -15.6865,12.0188 -24.8708,18.5719 -19.5822,12.6063 -20.6776,11.8981 -19.9929,10.34 -12.4809,6.6782 -11.2322,5.4085 -29.0489,12.8201 -18.3978,7.2113 -21.3024,7.2113 -21.4962,7.0111 -30.7851,7.4842 -23.827,4.8158 -28.4832,5.2409 c 0,0 -16.9803,2.2663 -17.5281,2.2663 -0.5477,0 -23.0056,2.9745 -23.0056,2.9745 l -19.3081,1.4165 -53.6273,1.442 c 0,0 0,1.0016 -15.2992,-0.2003 -15.2991,-1.2019 -45.7036,-5.0079 -45.7036,-5.0079 l -37.9573,-7.8122 -35.0523,-11.8186 -25.563,-9.6151 -25.1758,-12.0189 -7.7464,-4.8075 -21.3026,-10.817 -22.0771,-14.022 -18.204,-15.224 -18.204,-15.6245 -15.1054,-16.4258 -14.3309,-20.4321 -7.7464,-16.8264 -5.8097,-16.4258 -6.5845,-19.2303 z"
                id="path15"/>
        <path
                style="opacity:1;fill:url(#linearGradient4);fill-opacity:1"
                d="m 938.73153,1713.9489 21.15946,-10.8826 16.45736,-8.4642 6.80063,-3.0698 6.34143,-3.1038 6.21746,-2.8824 6.80063,-3.0697 5.7445,-2.5717 6.6812,-2.9632 7.6134,-3.2401 8.3069,-3.3039 8.7335,-3.3607 11.3288,-4.3773 8.8383,-3.1762 7.3577,-2.7968 9.7944,-3.5109 5.0145,-1.5882 8.2885,-2.844 6.3001,-2.0692 5.019,-1.703 5.4828,-1.784 5.6022,-1.8903 5.0144,-1.588 4.7849,-1.6051 7.113,-2.2395 6.1762,-1.8478 6.0568,-1.7412 5.7079,-1.652 7.4528,-2.0989 8.3575,-1.686 8.5871,-1.6689 8.3758,-2.1457 9.5238,-2.0607 7.6596,-1.5072 7.8982,-1.7199 9.0463,-1.6349 9.5147,-1.8307 7.6503,-1.2771 8.3483,-1.4561 8.5689,-1.209 7.8707,-1.0303 7.4024,-0.8344 6.2544,-0.9196 9.9647,-1.5667 13.1793,-1.3282 11.5628,-1.2176 9.028,-1.1749 11.076,-0.5618 9.0189,-0.945 11.3057,-0.5448 8.5504,-0.7493 9.0006,-0.4853 9.4596,-0.4511 9.0005,-0.4851 8.7343,0.4171 10.3873,-0.6129 8.7433,0.1875 7.8341,-0.1105 9.6619,0.2555 12.4354,2e-4 3.4533,0.026 5.7402,0.4259 7.127,0.298 6.8882,0.5111 7.1178,0.528 9.8639,0.9625 6.6586,0.4941 4.831,0.1275 12.6375,0.707 7.5587,1.022 7.1178,0.5281 11.9304,1.1157 8.2475,1.0731 9.3773,1.6182 9.8456,1.4223 8.7067,1.1072 6.8424,1.6606 9.3864,1.3882 c 0,0 8.22,1.7629 9.5885,2.095 1.3685,0.3321 7.77,1.4989 9.8272,1.8821 2.0574,0.3832 6.8424,1.6607 8.6702,2.027 1.8277,0.3662 6.8607,1.2008 8.6792,1.7969 1.8185,0.5961 8.8905,2.2738 10.0294,2.5889 1.1389,0.3151 8.2384,1.303 9.3773,1.6181 1.1388,0.3151 8.8813,2.5037 10.2498,2.8359 1.3684,0.3321 6.6036,1.8736 8.4313,2.2398 1.8277,0.3662 16.5735,3.994 16.5735,3.994 l 10.339,2.0715 11.456,2.6436 8.066,1.903 c 0,0 9.0142,2.6255 9.6571,2.8362 0.643,0.2108 11.5861,3.4686 12.229,3.6793 0.6429,0.2107 10.943,3.2578 11.586,3.4685 0.643,0.2108 10.6183,3.2337 10.6183,3.2337 l 9.7936,3.4987 9.4624,3.6371 7.3777,2.8302 5.9101,2.8843 3.0329,1.5296 1.2794,0.584 479.7275,-809.15427 -169.5316,-102.97351 z"
                id="path19"/></g>
    <g
            inkscape:groupmode="layer"
            id="layer2"
            inkscape:label="SCP131SVG  1"><path
       style="opacity:1;fill:#999999;stroke-width:1.09173;fill-opacity:1"
       id="path13"
       sodipodi:type="arc"
       sodipodi:cx="1091.4379"
       sodipodi:cy="2423.5669"
       sodipodi:rx="341.68906"
       sodipodi:ry="331.61032"
       sodipodi:start="0.0077207745"
       sodipodi:end="6.1622592"
       sodipodi:open="true"
       sodipodi:arc-type="arc"
       d="m 1433.1167,2426.1272 a 341.68906,331.61032 0 0 1 -333.3285,328.951 341.68906,331.61032 0 0 1 -349.49217,-312.7513 341.68906,331.61032 0 0 1 310.85187,-349.0648 341.68906,331.61032 0 0 1 369.4838,290.3021" />
        <path
                style="opacity:1;fill:#333333;fill-opacity:1;stroke-width:1.08788"
                id="path40"
                sodipodi:type="arc"
                sodipodi:cx="1084.0005"
                sodipodi:cy="2410"
                sodipodi:rx="223.0004"
                sodipodi:ry="207"
                sodipodi:start="0.0077207745"
                sodipodi:end="6.1622592"
                sodipodi:open="true"
                sodipodi:arc-type="arc"
                d="m 1306.9942,2411.5982 a 223.0004,207 0 0 1 -217.5439,205.34 223.0004,207 0 0 1 -228.09307,-195.2277 223.0004,207 0 0 1 202.87477,-217.8955 223.0004,207 0 0 1 241.1404,181.2143"/>
        <g
                inkscape:groupmode="layer"
                id="layer5"
                inkscape:label="SCP131SVG  EYES "
                style="fill:#000000"/></g>
    <g
            inkscape:groupmode="layer"
            id="layer3"
            inkscape:label="SCP131SVG  2"><path
       style="fill:#4d4d4d;fill-opacity:1;stroke-width:0.960293"
       id="path14-1"
       sodipodi:type="arc"
       sodipodi:cx="1101.8549"
       sodipodi:cy="-2680.4761"
       sodipodi:rx="348.83664"
       sodipodi:ry="149.55356"
       sodipodi:start="0.0077207745"
       sodipodi:end="6.1622592"
       sodipodi:open="true"
       sodipodi:arc-type="arc"
       d="m 1450.6811,-2679.3214 a 348.83664,149.55356 0 0 1 -340.3012,148.3542 348.83664,149.55356 0 0 1 -356.80302,-141.0483 348.83664,149.55356 0 0 1 317.35432,-157.4253 348.83664,149.55356 0 0 1 377.2129,130.9238"
       transform="scale(1,-1)" /></g>
    <g
            inkscape:groupmode="layer"
            id="layer4"
            inkscape:label="SCP131SVG  3"><path
       style="opacity:1;fill:url(#linearGradient6);fill-opacity:1"
       d="m 1788.4816,1662.2205 -27.2714,-7.318 -33.1348,-5.5224 -46.4809,-8.2838 -31.294,-5.5224 -45.1003,-2.7613 -19.3286,-2.7612 610.0297,-810.00527 67.6863,39.04981 z"
       id="path36" />
        <path
                style="opacity:1;fill:#ffffff;fill-opacity:0.84615386"
                id="path41"
                sodipodi:type="arc"
                sodipodi:cx="935.50232"
                sodipodi:cy="2284.6619"
                sodipodi:rx="51.618793"
                sodipodi:ry="45.961941"
                sodipodi:start="0.0077207745"
                sodipodi:end="6.1622592"
                sodipodi:open="true"
                sodipodi:arc-type="arc"
                d="m 987.11957,2285.0167 a 51.618793,45.961941 0 0 1 -50.35576,45.5934 51.618793,45.961941 0 0 1 -52.79762,-43.3481 51.618793,45.961941 0 0 1 46.96023,-48.3811 51.618793,45.961941 0 0 1 55.81774,40.2365"/>
        <path
                style="fill:#ffffff;fill-opacity:0.88942307;stroke-width:0.653669"
                id="path41-2"
                sodipodi:type="arc"
                sodipodi:cx="989.61853"
                sodipodi:cy="2215.2119"
                sodipodi:rx="34.11853"
                sodipodi:ry="29.711941"
                sodipodi:start="0.0077207745"
                sodipodi:end="6.1622592"
                sodipodi:open="true"
                sodipodi:arc-type="arc"
                d="m 1023.736,2215.4413 a 34.11853,29.711941 0 0 1 -33.28366,29.4737 34.11853,29.711941 0 0 1 -34.8977,-28.0222 34.11853,29.711941 0 0 1 31.03936,-31.2759 34.11853,29.711941 0 0 1 36.8939,26.0108"/>
        <path
                style="mix-blend-mode:normal;fill:#ffffff;fill-opacity:0.74;stroke-width:0.736408"
                id="path41-2-0"
                sodipodi:type="arc"
                sodipodi:cx="-312.73856"
                sodipodi:cy="2793.3792"
                sodipodi:rx="28.963932"
                sodipodi:ry="44.440975"
                sodipodi:start="0.0077207745"
                sodipodi:end="6.1622592"
                sodipodi:open="true"
                sodipodi:arc-type="arc"
                d="m -283.77549,2793.7223 a 28.963932,44.440975 0 0 1 -28.25523,44.0846 28.963932,44.440975 0 0 1 -29.62538,-41.9136 28.963932,44.440975 0 0 1 26.34995,-46.7802 28.963932,44.440975 0 0 1 31.32001,38.9051"
                transform="matrix(0.82162601,-0.57002693,0.54866695,0.83604101,0,0)"/>
        <path
                style="opacity:1;fill:#4d4d4d;fill-opacity:1"
                d="m 837.92153,2196.9808 c 36.08694,27.2296 83.27558,36.312 128.43168,34.1574 45.15609,-2.1545 89.10039,-14.6134 132.63999,-26.7797 43.5396,-12.1664 87.6559,-24.1989 132.8456,-25.4647 45.1898,-1.2657 92.2326,9.2578 127.2204,37.886 10.9239,8.9383 20.5793,19.5331 32.5696,26.9802 5.9951,3.7235 12.5758,6.6276 19.53,7.8302 6.9541,1.2026 14.3068,0.6351 20.7324,-2.2835 8.4305,-3.8293 14.7836,-11.5627 17.8416,-20.3026 3.058,-8.7399 2.9942,-18.3879 0.7987,-27.3833 -4.3911,-17.9907 -16.6714,-32.8505 -28.5398,-47.0664 -53.6339,-64.2424 -106.6272,-129.8596 -171.1671,-183.135 -64.54,-53.2755 -142.5047,-94.0382 -226.0068,-99.6129 -41.75105,-2.7873 -84.33072,3.4255 -122.71634,20.0828 -38.38562,16.6572 -72.41405,43.9617 -95.19501,79.0608 -22.78095,35.0991 -33.90757,78.0256 -28.91708,119.5709 4.99049,41.5453 26.53013,81.2562 59.93216,106.4598 z"
                id="path44"
                inkscape:path-effect="#path-effect44"
                inkscape:original-d="m 837.92153,2196.9808 c -194.69006,13.1993 347.42517,12.9636 521.13767,19.799 173.7126,6.8353 48.5547,21.6846 72.832,32.5269 24.2774,10.8423 -6.5996,-63.1682 -9.8995,-94.7523 -3.2998,-31.5841 -389.3801,27.8128 -584.07017,42.4264 z"
                transform="translate(-1.4142136,-28.284271)"/>
        <path
                style="opacity:1;fill:#4d4d4d;fill-opacity:1"
                d="m 1251.2291,3121.6667 c -1.7708,-0.3334 -5.3124,-1 -17.0418,-2.8959 -11.7294,-1.8959 -31.6456,-5.0208 -41.6721,-6.6858 -10.0265,-1.6649 -10.1627,-1.8698 -10.2181,-1.9706 -0.055,-0.1008 -0.03,-0.097 0.027,-0.09 0.057,0.01 0.1457,0.018 0.2338,0.025 0.088,0.01 0.1771,0.011 0.2574,0.017 0.08,0.01 0.1516,0.013 0.2152,0.02 0.064,0.01 0.1187,0.015 14.6801,0.5367 14.5613,0.5221 43.6276,1.5588 60.3561,1.8709 16.7285,0.3121 21.1183,-0.1004 23.8437,0.6067 2.7253,0.7072 3.7859,2.5338 3.5207,4.0364 -0.2652,1.5026 -1.8561,2.6811 -4.0953,3.6681 -2.2392,0.987 -5.1265,1.7825 -8.3822,2.0477 -3.2557,0.2651 -6.8795,0 -10.2666,-0.2299 -3.3872,-0.2298 -6.5373,-0.4243 -8.1125,-0.5215 -1.5751,-0.097 -1.5747,-0.1014 -3.3456,-0.4347 z"
                id="path48"
                inkscape:path-effect="#path-effect48"
                inkscape:original-d="m 1253,3122 c -3.5417,-0.6667 -7.0833,-1.3333 -10.625,-2 -19.9171,-3.1251 -39.8333,-6.25 -59.75,-9.375 -0.1363,-0.2049 -0.2725,-0.4098 -0.4088,-0.6147 0.026,0 0.052,0 0.077,0.01 0.088,0.011 0.1768,0.022 0.2652,0.033 0.088,0 0.1767,0.01 0.2651,0.011 0.072,0.01 0.1436,0.015 0.2155,0.022 0.055,0.01 0.1104,0.015 0.1657,0.022 29.0674,1.0368 58.1337,2.0735 87.2006,3.1102 4.3901,-0.4125 8.7799,-0.825 13.1699,-1.2375 1.0607,1.8268 2.1213,3.6534 3.182,5.4801 -1.5911,1.1785 -3.182,2.357 -4.773,3.5355 -2.8874,0.7956 -5.7747,1.591 -8.6621,2.3865 -3.624,-0.2651 -7.2478,-0.5303 -10.8717,-0.7955 -3.1504,-0.1945 -6.3005,-0.389 -9.4508,-0.5835 z"/>
        <text
                xml:space="preserve"
                style="font-style:normal;font-variant:normal;font-weight:normal;font-stretch:normal;font-size:192px;font-family:Bahnschrift;-inkscape-font-specification:Bahnschrift;opacity:1;fill:#4d4d4d;fill-opacity:1"
                x="2217.4868"
                y="1742.311"
                id="text49"><tspan
         sodipodi:role="line"
         id="tspan49"
         x="2217.4868"
         y="1742.311">AUCUNE FICHE !?</tspan></text>
        <text
                xml:space="preserve"
                style="font-style:normal;font-variant:normal;font-weight:normal;font-stretch:normal;font-size:266.667px;font-family:Bahnschrift;-inkscape-font-specification:Bahnschrift;white-space:pre;inline-size:94.6875;display:inline;opacity:1;fill:#1a1a1a;fill-opacity:1"
                x="1742.3112"
                y="2115.6636"
                id="text50"><tspan
         x="1742.3112"
         y="2115.6636"
         id="tspan2">?</tspan></text></g>
    <metadata
            id="metadata51"><rdf:RDF><cc:Work
         rdf:about=""><dc:title>Uh?</dc:title></cc:Work></rdf:RDF></metadata></svg>
