<?xml version="1.0" encoding="UTF-8" standalone="no"?>
<!-- Created with Inkscape (http://www.inkscape.org/) -->

<svg
        xmlns:xlink="http://www.w3.org/1999/xlink"
        width="123.69111mm"
        height="165.32851mm"
        viewBox="0 0 123.69111 165.32851"
        version="1.1"
        id="svg1"
        xmlns="http://www.w3.org/2000/svg"
>
    <defs
            id="defs1">
        <linearGradient
                id="linearGradient57">
            <stop
                    style="stop-color:#808080;stop-opacity:0;"
                    offset="0"
                    id="stop58"/>
            <stop
                    style="stop-color:#808080;stop-opacity:1;"
                    offset="0.38750002"
                    id="stop57"/>
        </linearGradient>
        <linearGradient
                id="linearGradient54">
            <stop
                    style="stop-color:#808080;stop-opacity:0;"
                    offset="0.01250001"
                    id="stop55"/>
            <stop
                    style="stop-color:#808080;stop-opacity:1;"
                    offset="0.62187499"
                    id="stop54"/>
        </linearGradient>
        <linearGradient
                xlink:href="#linearGradient54"
                id="linearGradient55"
                x1="8.1300125"
                y1="131.89015"
                x2="156.89101"
                y2="130.39345"
                gradientUnits="userSpaceOnUse"/>
        <linearGradient
                xlink:href="#linearGradient57"
                id="linearGradient58"
                x1="48.713017"
                y1="161.90141"
                x2="151.3503"
                y2="161.71432"
                gradientUnits="userSpaceOnUse"/>
    </defs>
    <g
            id="layer1"
            transform="translate(-33.199895,-105.48074)">
        <path
                style="fill:url(#linearGradient58);stroke-width:0.1093"
                d="m 55.822387,161.71433 v -6.88588 h 47.763953 47.76395 v 6.88588 6.88588 H 103.58634 55.822387 Z"
                id="path23"/>
        <path
                style="fill:url(#linearGradient55);fill-opacity:1;stroke-width:0.1093"
                d="m 36.360105,155.20878 c -1.458169,-0.11121 -2.236351,-0.35726 -2.747981,-0.86889 -0.35501,-0.35501 -0.414393,-0.48354 -0.412171,-0.89215 0.0068,-1.24695 1.042768,-2.778 3.658193,-5.40631 3.829142,-3.848 8.534325,-7.51264 16.316261,-12.70794 10.713651,-7.15254 26.66103,-16.43084 38.443617,-22.36677 8.747846,-4.40706 12.024476,-5.55327 18.900026,-6.61145 4.11079,-0.63267 7.33087,-0.87304 11.71534,-0.87453 6.57346,-0.002 10.66186,0.64943 15.12654,2.41109 4.59031,1.81123 10.67859,5.75443 13.8511,8.97096 1.69914,1.72271 2.74678,3.24047 3.61032,5.23042 2.15278,4.96084 2.70449,14.00053 1.28414,21.04018 -0.87653,4.34432 -2.08066,6.56141 -4.40967,8.11927 -1.91362,1.27999 -4.2356,1.95862 -8.10581,2.36901 -4.1287,0.4378 -4.15724,0.43807 -45.250054,0.44097 -44.462482,0.003 -44.045626,-0.003 -53.775435,0.82201 -2.344928,0.19889 -6.597938,0.45319 -6.995178,0.41827 -0.09017,-0.008 -0.634328,-0.0503 -1.209238,-0.0941 z"
                id="path24"/>
        <path
                style="font-size:14.1111px;font-family:Consolas;-inkscape-font-specification:Consolas;fill:#808080;stroke-width:0.264583"
                d="m 80.429742,268.24609 q 0,0.64078 -0.261828,1.1231 -0.261827,0.48231 -0.730359,0.80615 -0.468533,0.31695 -1.129991,0.47542 -0.654567,0.15847 -1.446939,0.15847 -0.358289,0 -0.716579,-0.0276 -0.351399,-0.0276 -0.682128,-0.0689 -0.323839,-0.0413 -0.613227,-0.0965 -0.289388,-0.0551 -0.523654,-0.11713 v -1.18512 q 0.516764,0.19293 1.157551,0.30317 0.647678,0.11025 1.46761,0.11025 0.592556,0 1.005967,-0.0896 0.420301,-0.0965 0.682128,-0.2756 0.268717,-0.18604 0.385851,-0.44787 0.124023,-0.26182 0.124023,-0.59944 0,-0.36518 -0.206706,-0.62012 -0.199815,-0.26183 -0.530544,-0.46164 -0.330729,-0.20671 -0.75792,-0.37207 -0.420302,-0.17226 -0.861273,-0.3514 -0.440972,-0.17915 -0.868164,-0.38585 -0.420301,-0.2136 -0.75103,-0.4961 -0.330729,-0.28938 -0.537435,-0.67523 -0.199815,-0.38585 -0.199815,-0.9164 0,-0.46164 0.192925,-0.9095 0.192925,-0.44786 0.599446,-0.79237 0.406521,-0.3514 1.040418,-0.565 0.640788,-0.21359 1.522731,-0.21359 0.227377,0 0.489204,0.0207 0.268717,0.0207 0.537434,0.062 0.275608,0.0344 0.537435,0.0827 0.268717,0.0482 0.496093,0.10335 v 1.10243 q -0.530544,-0.15158 -1.061089,-0.22737 -0.530544,-0.0827 -1.026637,-0.0827 -1.054199,0 -1.550292,0.3514 -0.496093,0.3514 -0.496093,0.94396 0,0.36518 0.199815,0.62701 0.206705,0.26182 0.537434,0.46853 0.330729,0.2067 0.751031,0.37896 0.427191,0.16536 0.868163,0.34451 0.440972,0.17914 0.861273,0.39274 0.427192,0.21359 0.757921,0.50987 0.330729,0.28939 0.530544,0.68213 0.206706,0.39274 0.206706,0.93018 z m 7.834141,-1.38493 q 0,0.25494 -0.0069,0.42719 -0.0069,0.17225 -0.02067,0.32384 h -4.857581 q 0,1.06109 0.592556,1.63297 0.592556,0.565 1.708766,0.565 0.303168,0 0.606336,-0.0207 0.303168,-0.0276 0.585666,-0.0689 0.282498,-0.0414 0.537434,-0.0896 0.261828,-0.0551 0.482313,-0.11713 v 0.9853 q -0.489203,0.1378 -1.109319,0.22048 -0.613227,0.0896 -1.274685,0.0896 -0.888834,0 -1.529621,-0.24115 -0.640787,-0.24116 -1.054198,-0.69591 -0.406521,-0.46164 -0.606337,-1.1231 -0.192925,-0.66835 -0.192925,-1.50895 0,-0.73036 0.206706,-1.37804 0.213595,-0.65457 0.613226,-1.14377 0.406521,-0.49609 0.992187,-0.78548 0.585666,-0.28939 1.329806,-0.28939 0.723469,0 1.281574,0.22738 0.558105,0.22737 0.937066,0.64768 0.38585,0.41341 0.578775,1.01285 0.199816,0.59256 0.199816,1.32981 z m -1.247124,-0.17226 q 0.02067,-0.46164 -0.08957,-0.8406 -0.110242,-0.38585 -0.344509,-0.66146 -0.227376,-0.2756 -0.571885,-0.42719 -0.344509,-0.15847 -0.799262,-0.15847 -0.39274,0 -0.716579,0.15158 -0.323839,0.15159 -0.558105,0.42719 -0.234266,0.27561 -0.37896,0.66146 -0.144694,0.38585 -0.179145,0.84749 z m 0.861273,-5.73952 -2.197969,1.66742 h -1.198892 l 1.660534,-1.66742 z m -6.559457,2.81808 z m 14.235124,6.66281 q -0.468533,0.17915 -0.964626,0.26183 -0.489203,0.0896 -1.012857,0.0896 -1.639865,0 -2.528699,-0.88883 -0.881943,-0.88883 -0.881943,-2.5976 0,-0.81993 0.254937,-1.48828 0.254936,-0.66835 0.716579,-1.14377 0.461642,-0.47542 1.10243,-0.73036 0.640787,-0.26183 1.412488,-0.26183 0.537434,0 1.005967,0.0758 0.468532,0.0758 0.895724,0.24805 v 1.14377 q -0.447862,-0.23426 -0.916395,-0.33762 -0.461642,-0.11024 -0.957736,-0.11024 -0.461642,0 -0.875053,0.17914 -0.406521,0.17226 -0.71658,0.50299 -0.310058,0.33073 -0.489203,0.80615 -0.179145,0.47542 -0.179145,1.07487 0,1.25401 0.606337,1.88102 0.613226,0.62012 1.694985,0.62012 0.489204,0 0.943956,-0.11025 0.461642,-0.11024 0.888834,-0.33073 z m 7.944381,0.25494 h -1.07487 l -0.0413,-1.11621 q -0.31006,0.35829 -0.59255,0.59945 -0.27561,0.23426 -0.55122,0.37896 -0.27561,0.14469 -0.5581,0.19981 -0.27561,0.062 -0.58567,0.062 -1.067977,0 -1.612302,-0.627 -0.544325,-0.62701 -0.544325,-1.8948 v -4.51997 h 1.198893 v 4.4235 q 0,1.59164 1.198894,1.59164 0.22048,0 0.42719,-0.062 0.2136,-0.0689 0.44097,-0.22738 0.23427,-0.16537 0.49609,-0.44097 0.26872,-0.27561 0.59945,-0.69591 v -4.58887 h 1.19889 z m 2.48047,-6.91775 h 1.09554 l 0.0345,1.27469 q 0.61323,-0.73725 1.20578,-1.06798 0.59945,-0.33073 1.20578,-0.33073 1.07487,0 1.62609,0.69591 0.5581,0.69591 0.51676,2.06706 h -1.21267 q 0.0207,-0.90951 -0.26872,-1.31603 -0.28249,-0.41341 -0.83371,-0.41341 -0.24116,0 -0.4892,0.0896 -0.24116,0.0827 -0.50299,0.27561 -0.25493,0.18603 -0.54432,0.48231 -0.28939,0.29628 -0.62012,0.71658 v 4.44417 h -1.21267 z m 9.83229,0.99219 h -2.04638 v -0.99219 h 3.25906 v 5.91867 h 2.06016 v 0.99908 h -5.5466 v -0.99908 h 2.27376 z m 0.42031,-3.89295 q 0.19981,0 0.37207,0.0758 0.17225,0.0689 0.29627,0.19981 0.13092,0.13092 0.19982,0.30317 0.0758,0.16537 0.0758,0.36518 0,0.19293 -0.0758,0.36518 -0.0689,0.17226 -0.19982,0.30317 -0.12402,0.13091 -0.29627,0.20671 -0.17226,0.0689 -0.37207,0.0689 -0.19982,0 -0.37207,-0.0689 -0.17226,-0.0758 -0.30317,-0.20671 -0.12403,-0.13091 -0.19982,-0.30317 -0.0689,-0.17225 -0.0689,-0.36518 0,-0.19981 0.0689,-0.36518 0.0758,-0.17225 0.19982,-0.30317 0.13091,-0.13091 0.30317,-0.19981 0.17225,-0.0758 0.37207,-0.0758 z m 10.55576,9.72205 q -0.40652,0.10335 -0.8406,0.14469 -0.43408,0.0482 -0.88195,0.0482 -1.30224,0 -1.94303,-0.58566 -0.64079,-0.59256 -0.64079,-1.81212 v -3.61046 h -1.93614 v -1.00597 h 1.93614 v -1.90169 l 1.1989,-0.31005 v 2.21174 h 3.10747 v 1.00597 h -3.10747 v 3.514 q 0,0.74414 0.39274,1.11621 0.39963,0.36518 1.17133,0.36518 0.33073,0 0.72347,-0.0482 0.39274,-0.0551 0.81993,-0.16537 z m 8.02706,-3.72759 q 0,0.25494 -0.007,0.42719 -0.007,0.17225 -0.0207,0.32384 h -4.85758 q 0,1.06109 0.59256,1.63297 0.59256,0.565 1.70877,0.565 0.30316,0 0.60633,-0.0207 0.30317,-0.0276 0.58567,-0.0689 0.28249,-0.0414 0.53743,-0.0896 0.26183,-0.0551 0.48231,-0.11713 v 0.9853 q -0.4892,0.1378 -1.10932,0.22048 -0.61322,0.0896 -1.27468,0.0896 -0.88883,0 -1.52962,-0.24115 -0.64079,-0.24116 -1.0542,-0.69591 -0.40652,-0.46164 -0.60634,-1.1231 -0.19292,-0.66835 -0.19292,-1.50895 0,-0.73036 0.2067,-1.37804 0.2136,-0.65457 0.61323,-1.14377 0.40652,-0.49609 0.99219,-0.78548 0.58566,-0.28939 1.3298,-0.28939 0.72347,0 1.28158,0.22738 0.5581,0.22737 0.93706,0.64768 0.38585,0.41341 0.57878,1.01285 0.19981,0.59256 0.19981,1.32981 z m -1.24712,-0.17226 q 0.0207,-0.46164 -0.0896,-0.8406 -0.11024,-0.38585 -0.34451,-0.66146 -0.22738,-0.2756 -0.57189,-0.42719 -0.34451,-0.15847 -0.79926,-0.15847 -0.39274,0 -0.71658,0.15158 -0.32384,0.15159 -0.5581,0.42719 -0.23427,0.27561 -0.37896,0.66146 -0.1447,0.38585 -0.17915,0.84749 z m 0.86127,-5.73952 -2.19796,1.66742 h -1.1989 l 1.66054,-1.66742 z m -6.55945,2.81808 z"
                id="text68"
                aria-label="Sécurité "/>
    </g>
</svg>
