<?xml version="1.0" encoding="UTF-8"?>
<svg width="96.738mm" height="25.923mm" version="1.1" viewBox="0 0 96.738 25.923"
     xml:space="preserve" xmlns="http://www.w3.org/2000/svg">
    <defs>
        <clipPath id="a"><path transform="translate(-59.633 -411.01)" d="m42.739 391.34h30.117v28.885h-30.117z"/></clipPath></defs>
    <g transform="translate(-49.768 -69.406)"><path d="m78.264 71.755a27.821 27.821 0 0 0-6.94-2.1352 19.066 19.066 0 0 0-0.889 1.8071 25.844 25.844 0 0 0-7.702 0 19.148 19.148 0 0 0-0.889-1.8071 28.017 28.017 0 0 0-6.9453 2.1405c-4.3921 6.4982-5.5827 12.835-4.9874 19.082a27.974 27.974 0 0 0 8.5116 4.273 20.558 20.558 0 0 0 1.823-2.9395 18.103 18.103 0 0 1-2.8707-1.3705c0.24077-0.17462 0.47625-0.35454 0.70379-0.52916a19.995 19.995 0 0 0 17.018 0c0.23019 0.18785 0.46567 0.36777 0.70379 0.52916a18.172 18.172 0 0 1-2.876 1.3732 20.373 20.373 0 0 0 1.823 2.9369 27.847 27.847 0 0 0 8.5169-4.2704c0.6985-7.2443-1.1933-13.523-5.0006-19.09zm-17.264 15.245c-1.6589 0-3.0295-1.5055-3.0295-3.3576s1.3229-3.3708 3.0242-3.3708c1.7013 0 3.0612 1.5187 3.0321 3.3708-0.0291 1.8521-1.3361 3.3576-3.0268 3.3576zm11.176 0c-1.6616 0-3.0268-1.5055-3.0268-3.3576s1.3229-3.3708 3.0268-3.3708 3.0533 1.5187 3.0242 3.3708-1.3335 3.3576-3.0242 3.3576z" fill="#fff" stroke-width=".26458"/></g>

    <g transform="matrix(.26458 0 0 .26458 257.23 -69.406)" fill="#fff">
        
        
        
        
        
        
        
        
        
        
        
        
        
        
        
        
        
        
        
        
        
        
        
        
        
        <path transform="matrix(3.3919 0 0 -3.3919 -651.44 293.57)"
              d="m0 0c-0.299-0.449-0.459-0.976-0.458-1.516 1e-3 -0.722 0.289-1.415 0.8-1.926 0.511-0.51 1.204-0.797 1.927-0.797 0.539 0 1.066 0.16 1.515 0.46 0.448 0.299 0.798 0.725 1.004 1.224 0.206 0.498 0.26 1.047 0.155 1.576-0.106 0.529-0.366 1.014-0.747 1.396-0.382 0.381-0.868 0.64-1.397 0.745s-1.078 0.05-1.576-0.156c-0.498-0.207-0.924-0.557-1.223-1.006m5.281 0.501c0.399-0.597 0.611-1.299 0.611-2.017-3e-3 -0.961-0.386-1.882-1.066-2.562-0.681-0.68-1.602-1.062-2.564-1.064-0.718 0-1.419 0.213-2.016 0.612s-1.062 0.966-1.337 1.629c-0.274 0.664-0.346 1.394-0.206 2.098s0.486 1.35 0.994 1.858c0.508 0.507 1.155 0.853 1.859 0.992 0.704 0.14 1.434 0.068 2.097-0.208 0.663-0.275 1.23-0.74 1.628-1.338m-13.124-13.202-1.777 0.735c0.258-0.538 0.667-0.988 1.176-1.297 0.51-0.309 1.098-0.463 1.694-0.443 0.595 0.02 1.172 0.212 1.66 0.555 0.488 0.342 0.865 0.819 1.086 1.372 0.222 0.553 0.277 1.159 0.16 1.743s-0.402 1.122-0.819 1.547c-0.418 0.425-0.95 0.719-1.532 0.847s-1.189 0.083-1.746-0.128l1.833-0.76c0.538-0.24 0.961-0.681 1.178-1.228 0.218-0.548 0.212-1.158-0.014-1.702s-0.656-0.977-1.198-1.209c-0.541-0.231-1.152-0.241-1.701-0.029zm19.685 17.804h-0.257v0.459h0.26c0.2 0 0.269-0.089 0.269-0.218 0-0.034-8e-3 -0.068-0.022-0.099-0.015-0.031-0.035-0.059-0.061-0.081-0.026-0.023-0.056-0.04-0.088-0.051-0.033-0.01-0.067-0.014-0.101-0.01m0.491 0.244c0 0.199-0.108 0.389-0.478 0.389h-0.482v-1.384h0.203v0.548h0.298l0.278-0.548h0.247l-0.316 0.612c0.074 0.032 0.137 0.086 0.182 0.154 0.044 0.068 0.068 0.148 0.068 0.229m-1.471-0.98c-0.132 0.193-0.204 0.42-0.208 0.654h-0.012c-6e-3 0.159 0.02 0.317 0.078 0.465 0.058 0.149 0.146 0.283 0.258 0.396 0.113 0.113 0.247 0.201 0.395 0.259 0.148 0.059 0.307 0.086 0.466 0.08 0.233 0 0.462-0.069 0.656-0.199 0.195-0.129 0.346-0.313 0.436-0.529 0.091-0.215 0.115-0.453 0.071-0.682-0.045-0.229-0.156-0.44-0.32-0.606-0.164-0.167-0.374-0.281-0.603-0.328-0.228-0.048-0.466-0.026-0.683 0.061-0.216 0.087-0.402 0.236-0.534 0.429m2.132-0.121c0.154 0.229 0.237 0.499 0.238 0.775 6e-3 0.185-0.026 0.369-0.094 0.541s-0.17 0.329-0.301 0.46c-0.13 0.131-0.286 0.234-0.458 0.304-0.171 0.069-0.355 0.102-0.54 0.098-0.276 0-0.546-0.081-0.776-0.234s-0.41-0.37-0.516-0.625-0.135-0.535-0.082-0.806 0.185-0.52 0.38-0.716c0.194-0.196 0.443-0.33 0.713-0.385 0.271-0.055 0.552-0.028 0.807 0.077 0.255 0.104 0.474 0.282 0.629 0.511m-25.289 1.137c2.667 2.462 6.162 3.829 9.791 3.831l7e-3 -0.023c2.687 1e-3 5.321-0.748 7.605-2.163 2.285-1.414 4.13-3.438 5.327-5.844s1.699-5.098 1.45-7.773c-0.25-2.676-1.24-5.229-2.861-7.372s-3.808-3.791-6.315-4.759c-2.507-0.969-5.234-1.218-7.874-0.721-2.641 0.497-5.091 1.721-7.074 3.535-1.983 1.813-3.421 4.144-4.151 6.73l5.535-2.29c0.202-0.992 0.766-1.874 1.581-2.475 0.815-0.6 1.824-0.877 2.831-0.777 1.008 0.101 1.942 0.572 2.622 1.321 0.681 0.75 1.059 1.726 1.061 2.739v0.193l4.908 3.502h0.114c1.078 0 2.131 0.32 3.026 0.918 0.896 0.599 1.594 1.45 2.007 2.445 0.412 0.995 0.52 2.09 0.31 3.147-0.211 1.057-0.729 2.027-1.491 2.789s-1.732 1.28-2.789 1.491c-1.057 0.21-2.152 0.102-3.147-0.31-0.995-0.413-1.846-1.111-2.445-2.007-0.598-0.895-0.918-1.948-0.918-3.026v-0.057l-3.442-4.987h-0.228c-0.821 0-1.623-0.248-2.299-0.713l-7.74 3.202c0.291 3.617 1.933 6.993 4.599 9.454"
              clip-path="url(#a)" fill-rule="evenodd"/>
        <rect x="-786.36" y="282.96" width="18.898" height="56.693" stroke-width=".7746"/>
        <rect x="-805.26" y="301.86" width="56.693" height="18.898" stroke-width=".7746"/></g></svg>
