<?xml version="1.0" encoding="UTF-8" standalone="no"?>
<!-- Created with Inkscape (http://www.inkscape.org/) -->

<svg
        xmlns:inkscape="http://www.inkscape.org/namespaces/inkscape"
        xmlns:sodipodi="http://sodipodi.sourceforge.net/DTD/sodipodi-0.dtd"
        width="137.02708mm"
        height="213.74294mm"
        viewBox="0 0 137.02708 213.74294"
        version="1.1"
        id="svg1"
        inkscape:version="1.3.2 (091e20e, 2023-11-25, custom)"
        sodipodi:docname="ficherp_gestion.svg"
        xml:space="preserve"
        xmlns="http://www.w3.org/2000/svg"
><sodipodi:namedview
     id="namedview1"
     pagecolor="#505050"
     bordercolor="#eeeeee"
     borderopacity="1"
     inkscape:showpageshadow="0"
     inkscape:pageopacity="0"
     inkscape:pagecheckerboard="0"
     inkscape:deskcolor="#505050"
     inkscape:document-units="mm"
     inkscape:zoom="0.70958561"
     inkscape:cx="594.7133"
     inkscape:cy="444.6257"
     inkscape:window-width="1920"
     inkscape:window-height="1009"
     inkscape:window-x="-8"
     inkscape:window-y="-8"
     inkscape:window-maximized="1"
     inkscape:current-layer="layer1" />
    <defs
            id="defs1"/>
    <g
            inkscape:label="Calque 1"
            inkscape:groupmode="layer"
            id="layer1"
            transform="translate(-36.21996,-56.934004)"><path
       style="font-size:14.1111px;font-family:Consolas;-inkscape-font-specification:Consolas;fill:#808080;stroke-width:0.264583"
       d="m 50.01632,263.09085 q -0.502984,-0.26872 -1.033528,-0.41341 -0.530544,-0.15159 -1.157551,-0.15159 -0.716579,0 -1.274685,0.25494 -0.558105,0.25493 -0.943955,0.72347 -0.37896,0.46164 -0.585666,1.11621 -0.199815,0.65457 -0.199815,1.44694 0,0.82682 0.165364,1.48139 0.165365,0.65456 0.516764,1.10932 0.3514,0.45475 0.895724,0.69591 0.551215,0.24115 1.316026,0.24115 0.130913,0 0.282497,-0.0138 0.151585,-0.0138 0.303169,-0.0344 0.151584,-0.0276 0.289387,-0.062 0.144694,-0.0344 0.254937,-0.0758 v -2.86632 H 47.005309 V 265.53 h 3.052352 v 4.60265 q -0.282498,0.13091 -0.599446,0.23426 -0.310059,0.10336 -0.640787,0.17226 -0.323839,0.0689 -0.647678,0.10335 -0.323839,0.0344 -0.627007,0.0344 -0.923285,0 -1.667425,-0.28939 -0.73725,-0.28938 -1.260904,-0.85438 -0.516764,-0.57189 -0.799261,-1.41938 -0.275608,-0.84749 -0.275608,-1.9637 0,-1.10932 0.310059,-1.98437 0.310058,-0.88195 0.868163,-1.48828 0.564995,-0.61323 1.350476,-0.93018 0.792372,-0.32384 1.743217,-0.32384 0.606337,0 1.150661,0.11024 0.551215,0.10336 1.054199,0.33762 z m 7.772129,3.63801 q 0,0.25494 -0.0069,0.4272 -0.0069,0.17225 -0.02067,0.32383 h -4.85758 q 0,1.06109 0.592556,1.63298 0.592555,0.56499 1.708766,0.56499 0.303168,0 0.606336,-0.0207 0.303168,-0.0276 0.585666,-0.0689 0.282497,-0.0413 0.537434,-0.0896 0.261827,-0.0551 0.482313,-0.11713 v 0.98529 q -0.489203,0.13781 -1.10932,0.22049 -0.613226,0.0896 -1.274684,0.0896 -0.888834,0 -1.529621,-0.24116 -0.640788,-0.24115 -1.054199,-0.6959 -0.406521,-0.46165 -0.606336,-1.1231 -0.192925,-0.66835 -0.192925,-1.50896 0,-0.73036 0.206705,-1.37803 0.213596,-0.65457 0.613227,-1.14377 0.406521,-0.4961 0.992187,-0.78548 0.585665,-0.28939 1.329805,-0.28939 0.72347,0 1.281575,0.22737 0.558105,0.22738 0.937065,0.64768 0.385851,0.41341 0.578776,1.01286 0.199815,0.59255 0.199815,1.3298 z m -1.247123,-0.17225 q 0.02067,-0.46164 -0.08957,-0.8406 -0.110243,-0.38585 -0.344509,-0.66146 -0.227376,-0.27561 -0.571886,-0.42719 -0.344509,-0.15848 -0.799261,-0.15848 -0.392741,0 -0.716579,0.15159 -0.323839,0.15158 -0.558105,0.42719 -0.234267,0.27561 -0.378961,0.66146 -0.144694,0.38585 -0.179144,0.84749 z m 8.640292,2.1084 q 0,0.36518 -0.124023,0.65456 -0.124023,0.28939 -0.337619,0.51677 -0.213596,0.22048 -0.496094,0.37896 -0.282497,0.15847 -0.606336,0.26183 -0.316948,0.10335 -0.654568,0.15158 -0.337619,0.0482 -0.661457,0.0482 -0.702799,0 -1.295355,-0.062 -0.585666,-0.062 -1.150661,-0.19982 v -1.10243 q 0.606336,0.17226 1.205782,0.26183 0.599446,0.0896 1.192002,0.0896 0.861274,0 1.274685,-0.23426 0.413411,-0.23427 0.413411,-0.66835 0,-0.18604 -0.0689,-0.33073 -0.06201,-0.15158 -0.234266,-0.2825 -0.172255,-0.1378 -0.537435,-0.28249 -0.358289,-0.1447 -0.985296,-0.33073 -0.468533,-0.13781 -0.868164,-0.31006 -0.39274,-0.17915 -0.682128,-0.4203 -0.289388,-0.24116 -0.454752,-0.565 -0.165365,-0.32384 -0.165365,-0.76481 0,-0.28939 0.130914,-0.6339 0.137803,-0.34451 0.461642,-0.64078 0.323839,-0.29628 0.875054,-0.48921 0.551215,-0.19981 1.378037,-0.19981 0.406521,0 0.902614,0.0482 0.496094,0.0413 1.033528,0.15158 v 1.06798 q -0.564995,-0.1378 -1.074869,-0.19981 -0.502984,-0.0689 -0.875054,-0.0689 -0.447862,0 -0.75792,0.0689 -0.303168,0.0689 -0.496093,0.19292 -0.186035,0.11713 -0.268718,0.2825 -0.08268,0.15847 -0.08268,0.34451 0,0.18603 0.0689,0.33762 0.07579,0.15158 0.268717,0.29628 0.199816,0.1378 0.551215,0.28249 0.3514,0.13781 0.916395,0.30317 0.613226,0.17915 1.033528,0.37896 0.420301,0.19293 0.682128,0.43408 0.261827,0.24116 0.37207,0.54433 0.117133,0.30317 0.117133,0.68902 z m 7.854812,1.79144 q -0.406521,0.10336 -0.840602,0.1447 -0.434082,0.0482 -0.881944,0.0482 -1.302245,0 -1.943032,-0.58567 -0.640788,-0.59255 -0.640788,-1.81211 v -3.61046 h -1.936142 v -1.00597 h 1.936142 v -1.90169 l 1.198893,-0.31006 v 2.21175 h 3.107473 v 1.00597 h -3.107473 v 3.51399 q 0,0.74414 0.39274,1.11621 0.399631,0.36518 1.171332,0.36518 0.330729,0 0.723469,-0.0482 0.392741,-0.0551 0.819932,-0.16536 z m 4.540632,-5.82909 h -2.046385 v -0.99219 h 3.259058 v 5.91867 H 80.8499 v 0.99908 h -5.546599 v -0.99908 h 2.273761 z m 0.420301,-3.89296 q 0.199816,0 0.37207,0.0758 0.172255,0.0689 0.296278,0.19982 0.130914,0.13091 0.199816,0.30317 0.07579,0.16536 0.07579,0.36518 0,0.19292 -0.07579,0.36518 -0.0689,0.17225 -0.199816,0.30317 -0.124023,0.13091 -0.296278,0.2067 -0.172254,0.0689 -0.37207,0.0689 -0.199815,0 -0.37207,-0.0689 -0.172254,-0.0758 -0.303168,-0.2067 -0.124023,-0.13092 -0.199815,-0.30317 -0.0689,-0.17226 -0.0689,-0.36518 0,-0.19982 0.0689,-0.36518 0.07579,-0.17226 0.199815,-0.30317 0.130914,-0.13091 0.303168,-0.19982 0.172255,-0.0758 0.37207,-0.0758 z m 11.003626,6.30452 q 0,0.80615 -0.227376,1.48139 -0.227376,0.66835 -0.654567,1.15066 -0.427192,0.47543 -1.040419,0.74414 -0.613226,0.26183 -1.391817,0.26183 -0.74414,0 -1.336696,-0.22738 -0.585666,-0.23426 -0.999077,-0.68212 -0.406521,-0.44787 -0.627007,-1.10932 -0.213596,-0.66146 -0.213596,-1.52273 0,-0.80616 0.227377,-1.46761 0.227376,-0.66835 0.654567,-1.14377 0.427192,-0.48232 1.040418,-0.74415 0.613227,-0.26871 1.391818,-0.26871 0.74414,0 1.329806,0.23426 0.592555,0.22738 0.999076,0.67524 0.413412,0.44097 0.627007,1.10243 0.220486,0.66146 0.220486,1.51584 z m -1.226453,0.0551 q 0,-0.64078 -0.144694,-1.11621 -0.137803,-0.48231 -0.39963,-0.79926 -0.261827,-0.32384 -0.640788,-0.48231 -0.37207,-0.16536 -0.833712,-0.16536 -0.537435,0 -0.923285,0.21359 -0.37896,0.20671 -0.627007,0.55811 -0.241156,0.3514 -0.35829,0.81993 -0.110243,0.46164 -0.110243,0.97151 0,0.64079 0.137804,1.1231 0.144694,0.48232 0.406521,0.80616 0.261827,0.31694 0.633897,0.48231 0.37207,0.15847 0.840603,0.15847 0.537434,0 0.916395,-0.2067 0.38585,-0.2136 0.627006,-0.565 0.248047,-0.3514 0.35829,-0.81304 0.117133,-0.46853 0.117133,-0.9853 z m 2.962781,-3.45887 h 1.067979 l 0.04823,1.11621 q 0.303169,-0.35829 0.585666,-0.59255 0.282498,-0.24116 0.551215,-0.38586 0.275608,-0.14469 0.558105,-0.19981 0.282498,-0.062 0.585666,-0.062 1.067979,0 1.612303,0.63389 0.551215,0.62701 0.551215,1.89481 v 4.51307 h -1.198892 v -4.41661 q 0,-0.81304 -0.303168,-1.19889 -0.303168,-0.39274 -0.902615,-0.39274 -0.220486,0 -0.434081,0.0689 -0.206706,0.062 -0.434082,0.22737 -0.227376,0.15848 -0.496093,0.43409 -0.261827,0.2756 -0.592556,0.68901 v 4.58887 h -1.198893 z m 20.904823,-1.04042 h -3.82405 v 2.92144 h 3.62423 v 1.02664 h -3.62423 v 4.01009 h -1.25402 v -9.00548 h 5.07807 z m 4.72667,2.03261 h -2.04639 v -0.99219 h 3.25906 v 5.91867 h 2.06017 v 0.99908 h -5.5466 v -0.99908 h 2.27376 z m 0.4203,-3.89296 q 0.19981,0 0.37207,0.0758 0.17225,0.0689 0.29628,0.19982 0.13091,0.13091 0.19981,0.30317 0.0758,0.16536 0.0758,0.36518 0,0.19292 -0.0758,0.36518 -0.0689,0.17225 -0.19981,0.30317 -0.12403,0.13091 -0.29628,0.2067 -0.17226,0.0689 -0.37207,0.0689 -0.19982,0 -0.37207,-0.0689 -0.17226,-0.0758 -0.30317,-0.2067 -0.12402,-0.13092 -0.19981,-0.30317 -0.0689,-0.17226 -0.0689,-0.36518 0,-0.19982 0.0689,-0.36518 0.0758,-0.17226 0.19981,-0.30317 0.13091,-0.13091 0.30317,-0.19982 0.17225,-0.0758 0.37207,-0.0758 z m 10.35595,9.56358 q -0.46854,0.17915 -0.96463,0.26183 -0.4892,0.0896 -1.01286,0.0896 -1.63986,0 -2.5287,-0.88883 -0.88194,-0.88884 -0.88194,-2.5976 0,-0.81994 0.25494,-1.48828 0.25493,-0.66835 0.71658,-1.14377 0.46164,-0.47543 1.10243,-0.73036 0.64078,-0.26183 1.41248,-0.26183 0.53744,0 1.00597,0.0758 0.46853,0.0758 0.89573,0.24805 v 1.14377 q -0.44787,-0.23427 -0.9164,-0.33762 -0.46164,-0.11024 -0.95773,-0.11024 -0.46165,0 -0.87506,0.17914 -0.40652,0.17226 -0.71658,0.50298 -0.31006,0.33073 -0.4892,0.80616 -0.17915,0.47542 -0.17915,1.07487 0,1.25401 0.60634,1.88102 0.61323,0.62011 1.69499,0.62011 0.4892,0 0.94395,-0.11024 0.46164,-0.11024 0.88884,-0.33073 z m 7.94438,0.25494 h -1.19889 v -4.41661 q 0,-0.79926 -0.30317,-1.192 -0.29628,-0.39963 -0.85439,-0.39963 -0.24115,0 -0.45475,0.0689 -0.2067,0.062 -0.43408,0.22737 -0.22738,0.15848 -0.49609,0.43409 -0.26872,0.2756 -0.62012,0.68901 v 4.58887 h -1.19889 v -9.73583 h 1.19889 v 2.81808 l -0.0413,1.08865 q 0.2825,-0.33762 0.55121,-0.56499 0.27561,-0.23427 0.54433,-0.37897 0.27561,-0.14469 0.5581,-0.2067 0.2825,-0.062 0.58567,-0.062 1.03353,0 1.59852,0.63389 0.565,0.62701 0.565,1.89481 z m 8.04085,-3.82406 q 0,0.25494 -0.007,0.4272 -0.007,0.17225 -0.0207,0.32383 h -4.85758 q 0,1.06109 0.59255,1.63298 0.59256,0.56499 1.70877,0.56499 0.30317,0 0.60634,-0.0207 0.30316,-0.0276 0.58566,-0.0689 0.2825,-0.0413 0.53744,-0.0896 0.26182,-0.0551 0.48231,-0.11713 v 0.98529 q -0.4892,0.13781 -1.10932,0.22049 -0.61323,0.0896 -1.27468,0.0896 -0.88884,0 -1.52963,-0.24116 -0.64078,-0.24115 -1.05419,-0.6959 -0.40653,-0.46165 -0.60634,-1.1231 -0.19293,-0.66835 -0.19293,-1.50896 0,-0.73036 0.20671,-1.37803 0.2136,-0.65457 0.61323,-1.14377 0.40652,-0.4961 0.99218,-0.78548 0.58567,-0.28939 1.32981,-0.28939 0.72347,0 1.28157,0.22737 0.55811,0.22738 0.93707,0.64768 0.38585,0.41341 0.57877,1.01286 0.19982,0.59255 0.19982,1.3298 z m -1.24712,-0.17225 q 0.0207,-0.46164 -0.0896,-0.8406 -0.11024,-0.38585 -0.34451,-0.66146 -0.22737,-0.27561 -0.57188,-0.42719 -0.34451,-0.15848 -0.79926,-0.15848 -0.39274,0 -0.71658,0.15159 -0.32384,0.15158 -0.55811,0.42719 -0.23426,0.27561 -0.37896,0.66146 -0.14469,0.38585 -0.17914,0.84749 z m 17.06009,3.99631 h -1.38493 l -1.34358,-2.8801 q -0.15159,-0.33073 -0.31006,-0.54432 -0.15848,-0.22049 -0.34451,-0.34451 -0.17915,-0.13092 -0.39963,-0.18604 -0.2136,-0.0551 -0.48231,-0.0551 h -0.57878 v 4.01009 h -1.22645 v -9.00548 h 2.41156 q 0.78548,0 1.35048,0.17226 0.56499,0.17225 0.92328,0.48231 0.36518,0.31006 0.53055,0.75103 0.17225,0.43408 0.17225,0.96463 0,0.4203 -0.12402,0.79926 -0.12402,0.37207 -0.37207,0.68213 -0.24116,0.30317 -0.60634,0.53054 -0.35829,0.22049 -0.82682,0.33073 0.37896,0.13092 0.64079,0.46164 0.26871,0.32384 0.54432,0.86817 z m -1.9637,-6.5319 q 0,-0.72347 -0.45475,-1.08176 -0.44787,-0.35829 -1.2678,-0.35829 h -1.15755 v 2.97656 h 0.99219 q 0.43408,0 0.77859,-0.0965 0.3514,-0.10335 0.59255,-0.29628 0.24805,-0.19981 0.37896,-0.48231 0.13781,-0.28939 0.13781,-0.66146 z m 9.4809,0.2825 q 0,0.55121 -0.20671,1.09554 -0.2067,0.53743 -0.64078,0.96462 -0.43409,0.4272 -1.10932,0.69591 -0.67524,0.26183 -1.61231,0.26183 h -1.11621 v 3.2315 h -1.22645 v -9.00548 h 2.53559 q 0.66835,0 1.28157,0.15159 0.61323,0.14469 1.07487,0.47542 0.46853,0.33073 0.74414,0.85438 0.27561,0.52366 0.27561,1.27469 z m -1.27469,0.0551 q 0,-0.86816 -0.57188,-1.32981 -0.565,-0.46164 -1.58474,-0.46164 h -1.25402 v 3.70692 h 1.14377 q 1.08865,0 1.67432,-0.47542 0.59255,-0.47542 0.59255,-1.44005 z"
       id="text68"
       aria-label="Gestion Fiche RP" />
        <rect
                style="fill:#4d4d4d;fill-opacity:0;stroke:#808080;stroke-width:5;stroke-linecap:butt;stroke-linejoin:miter;stroke-dasharray:none;stroke-opacity:1;paint-order:normal"
                id="rect70"
                width="132.02708"
                height="186.79584"
                x="38.719959"
                y="59.434006"/>
        <g
                id="g2"
                transform="matrix(0.30390506,0,0,0.30390506,48.725076,65.528487)">
	<g
            inkscape:groupmode="layer"
            id="layer2"
            inkscape:label="Layer 1"><rect
     style="fill:#808080;fill-rule:evenodd;stroke-width:0.871351"
     id="rect82-7"
     width="352.73434"
     height="32.012009"
     x="8.0608988"
     y="133.97488" />
        <rect
                style="fill:#808080;fill-rule:evenodd;stroke-width:0.78105"
                id="rect82-39-9"
                width="283.41278"
                height="32.012009"
                x="77.382431"
                y="74.333313"/>
        <rect
                style="fill:#808080;fill-rule:evenodd;stroke-width:0.870611"
                id="rect82-0-0"
                width="352.13208"
                height="32.012009"
                x="8.0608988"
                y="193.61646"
                inkscape:transform-center-x="-7.6729166"
                inkscape:transform-center-y="-9.7895833"/>
        <rect
                style="fill:#808080;fill-rule:evenodd;stroke-width:0.870611"
                id="rect82-8-7"
                width="352.13208"
                height="32.012009"
                x="8.2710428"
                y="253.9127"/>
        <rect
                style="fill:#808080;fill-rule:evenodd;stroke-width:0.870611"
                id="rect82-3-2"
                width="352.13208"
                height="32.012009"
                x="8.366868"
                y="312.88712"/>
        <g
                id="g3"
                transform="translate(-0.30114166,59.641555)">
		<rect
                style="fill:none;fill-opacity:1;stroke:#808080;stroke-width:1.64525;stroke-dasharray:none;stroke-opacity:1"
                id="rect1-1"
                width="42.301674"
                height="64.243996"
                x="9.1846638"
                y="-0.24615709"/>
            <ellipse
                    style="fill:#808080;fill-opacity:1"
                    cx="30.336"
                    cy="15.579448"
                    rx="11.997"
                    ry="12.097"
                    id="ellipse1-7"/>
            <path
                    style="fill:#808080;fill-opacity:1"
                    d="M 35.64,30.079 H 25.031 c -7.021,0 -12.714,5.739 -12.714,12.821 V 60.671 H 48.354 V 42.9 c 0,-7.082 -5.693,-12.821 -12.714,-12.821 z"
                    id="path1-4"/>
	</g></g>
</g></g></svg>
