<?xml version="1.0" encoding="UTF-8"?>
<svg width="61.608mm" height="24.927mm" version="1.1" viewBox="0 0 61.608 24.927"
     xmlns="http://www.w3.org/2000/svg">
    <defs>
        <linearGradient id="a" x1="56.7" x2="118.31" y1="93.704" y2="93.704" gradientUnits="userSpaceOnUse">
            <stop stop-color="#f0f" offset="0"/>
            <stop stop-color="#7fff7f" offset=".5"/>
            <stop offset="1"/>
        </linearGradient>
    </defs>
    <g transform="translate(-56.7 -81.24)" stroke-width=".26458">
        <rect x="56.7" y="81.24" width="61.608" height="24.927" fill="url(#a)"/>
        <path d="m68.175 97.902h-0.81856v-5.3041l-1.7115 3.6091h-0.48782l-1.6991-3.6091v5.3041h-0.76481v-6.1557h1.1162l1.6412 3.4272 1.5875-3.4272h1.1369zm3.8241 0h-2.4309v-0.62838h0.80615v-4.8989h-0.80615v-0.62839h2.4309v0.62839h-0.80615v4.8989h0.80615zm5.8663-1.757q0 0.35967-0.1695 0.71107-0.16536 0.3514-0.46716 0.59531-0.33073 0.26458-0.77308 0.41341-0.43822 0.14883-1.0583 0.14883-0.66559 0-1.1989-0.12402-0.52917-0.12402-1.079-0.36794v-1.0253h0.05788q0.46716 0.38861 1.079 0.59945 0.61185 0.21084 1.1493 0.21084 0.76068 0 1.1824-0.28525 0.42581-0.28525 0.42581-0.76068 0-0.40928-0.20257-0.60358-0.19844-0.1943-0.60772-0.30179-0.31006-0.08268-0.67386-0.13643-0.35967-0.05374-0.76481-0.13643-0.81856-0.17363-1.2154-0.59118-0.39274-0.42168-0.39274-1.0955 0-0.77308 0.65319-1.265 0.65319-0.49609 1.6578-0.49609 0.64906 0 1.1906 0.12402 0.54157 0.12402 0.95912 0.30592v0.96738h-0.05788q-0.3514-0.29766-0.92604-0.49196-0.57051-0.19844-1.17-0.19844-0.65732 0-1.0583 0.27285-0.39688 0.27285-0.39688 0.7028 0 0.38447 0.19844 0.60358 0.19844 0.21911 0.69867 0.33486 0.26458 0.05788 0.75241 0.14056t0.82682 0.1695q0.68626 0.1819 1.0335 0.54984t0.34726 1.0294zm6.4492 1.3022q-0.50436 0.23151-1.1038 0.40514-0.59531 0.1695-1.1534 0.1695-0.71934 0-1.3188-0.19844-0.59945-0.19844-1.0211-0.59531-0.42581-0.40101-0.65732-1.0005-0.23151-0.60358-0.23151-1.4097 0-1.4759 0.8599-2.3275 0.86403-0.85576 2.3688-0.85576 0.52503 0 1.0707 0.12816 0.54984 0.12402 1.1824 0.42581v0.97152h-0.07441q-0.12816-0.09922-0.37207-0.26045-0.24391-0.16123-0.47956-0.26872-0.28525-0.12816-0.64906-0.21084-0.35967-0.08682-0.81856-0.08682-1.0335 0-1.6371 0.66559-0.59945 0.66146-0.59945 1.7942 0 1.1948 0.62839 1.8604 0.62838 0.66146 1.7115 0.66146 0.39688 0 0.78962-0.07855 0.39688-0.07855 0.69453-0.20257v-1.5089h-1.6495v-0.71934h2.4598zm6.1268 0.45475h-1.0129l-2.9187-5.5066v5.5066h-0.76481v-6.1557h1.2692l2.6624 5.0271v-5.0271h0.76481zm6.7841 0h-2.4309v-0.62838h0.80615v-4.8989h-0.80615v-0.62839h2.4309v0.62839h-0.80615v4.8989h0.80615zm6.875 0h-0.81856v-5.3041l-1.7115 3.6091h-0.48783l-1.6991-3.6091v5.3041h-0.76481v-6.1557h1.1162l1.6412 3.4272 1.5875-3.4272h1.1369zm6.7882-0.45475q-0.50436 0.23151-1.1038 0.40514-0.59531 0.1695-1.1534 0.1695-0.71933 0-1.3188-0.19844-0.59945-0.19844-1.0211-0.59531-0.42581-0.40101-0.65732-1.0005-0.23151-0.60358-0.23151-1.4097 0-1.4759 0.85989-2.3275 0.86403-0.85576 2.3688-0.85576 0.52504 0 1.0707 0.12816 0.54984 0.12402 1.1824 0.42581v0.97152h-0.0744q-0.12816-0.09922-0.37207-0.26045-0.24391-0.16123-0.47956-0.26872-0.28525-0.12816-0.64905-0.21084-0.35967-0.08682-0.81856-0.08682-1.0335 0-1.6371 0.66559-0.59944 0.66146-0.59944 1.7942 0 1.1948 0.62838 1.8604 0.62839 0.66146 1.7115 0.66146 0.39687 0 0.78961-0.07855 0.39688-0.07855 0.69453-0.20257v-1.509h-1.6495v-0.71934h2.4598z"
              fill="#fff" aria-label="MISGN IMG"/>
    </g>
</svg>
