<?xml version="1.0" encoding="UTF-8" standalone="no"?>
<!-- Created with Inkscape (http://www.inkscape.org/) -->

<svg
        width="61.608307mm"
        height="24.927469mm"
        viewBox="0 0 61.608307 24.927469"
        version="1.1"
        id="svg1"
        sodipodi:docname="misgn.svg"
        inkscape:export-filename="..\frontend\assets\app_img\misgn.svg"
        inkscape:export-xdpi="96"
        xmlns:inkscape="http://www.inkscape.org/namespaces/inkscape"
        xmlns:sodipodi="http://sodipodi.sourceforge.net/DTD/sodipodi-0.dtd"
        xmlns:xlink="http://www.w3.org/1999/xlink"
        xmlns="http://www.w3.org/2000/svg"
        inkscape:export-ydpi="96">
  <sodipodi:namedview
          id="namedview1"
          pagecolor="#ffffff"
          bordercolor="#000000"
          borderopacity="0.25"
          inkscape:showpageshadow="2"
          inkscape:pageopacity="0.0"
          inkscape:pagecheckerboard="0"
          inkscape:deskcolor="#d1d1d1"
          inkscape:document-units="mm"/>
  <defs
          id="defs1">
    <linearGradient
            id="linearGradient6"
            inkscape:collect="always">
      <stop
              style="stop-color:#ff00ff;stop-opacity:1;"
              offset="0"
              id="stop7"/>
      <stop
              style="stop-color:#7fff7f;stop-opacity:1;"
              offset="0.5"
              id="stop9"/>
      <stop
              style="stop-color:#000000;stop-opacity:1;"
              offset="1"
              id="stop8"/>
    </linearGradient>
    <linearGradient
            inkscape:collect="always"
            xlink:href="#linearGradient6"
            id="linearGradient8"
            x1="56.70031"
            y1="93.704048"
            x2="118.30862"
            y2="93.704048"
            gradientUnits="userSpaceOnUse"/>
  </defs>
  <g
          inkscape:label="Calque 1"
          inkscape:groupmode="layer"
          id="layer1"
          transform="translate(-56.70031,-81.240311)">
    <rect
            style="fill:url(#linearGradient8);fill-opacity:1;stroke-width:0.264583"
            id="rect1"
            width="61.608307"
            height="24.927471"
            x="56.70031"
            y="81.240311"/>
    <path
            style="font-size:8.46667px;-inkscape-font-specification:sans-serif;fill:#ffffff;stroke-width:0.264583"
            d="m 68.17528,97.901672 h -0.818555 v -5.304071 l -1.711524,3.609084 h -0.487825 l -1.699122,-3.609084 v 5.304071 h -0.764812 v -6.155699 h 1.116212 l 1.641244,3.427183 1.587501,-3.427183 h 1.136881 z m 3.824058,0 h -2.43086 v -0.628385 h 0.806152 v -4.898928 h -0.806152 v -0.628386 h 2.43086 v 0.628386 h -0.806153 v 4.898928 h 0.806153 z m 5.866311,-1.756999 q 0,0.359668 -0.169499,0.711068 -0.165364,0.3514 -0.467155,0.595313 -0.330729,0.264583 -0.77308,0.413411 -0.438216,0.148829 -1.058333,0.148829 -0.665593,0 -1.198894,-0.124024 -0.529167,-0.124023 -1.079004,-0.367936 v -1.025261 h 0.05788 q 0.467155,0.388607 1.079005,0.599447 0.611849,0.21084 1.149284,0.21084 0.760677,0 1.182357,-0.285254 0.425814,-0.285254 0.425814,-0.760678 0,-0.409277 -0.202572,-0.603581 -0.198437,-0.194303 -0.607715,-0.30179 -0.310058,-0.08268 -0.673861,-0.136426 -0.359668,-0.05374 -0.764811,-0.136426 -0.818555,-0.173633 -1.21543,-0.591179 -0.392741,-0.421679 -0.392741,-1.09554 0,-0.77308 0.65319,-1.26504 0.65319,-0.496094 1.657781,-0.496094 0.649056,0 1.190625,0.124024 0.541569,0.124023 0.959115,0.305924 v 0.967383 h -0.05788 q -0.3514,-0.297656 -0.926042,-0.491959 -0.570508,-0.198438 -1.169955,-0.198438 -0.657324,0 -1.058333,0.272852 -0.396875,0.272851 -0.396875,0.702799 0,0.384473 0.198437,0.603581 0.198438,0.219109 0.698666,0.334864 0.264583,0.05788 0.752409,0.14056 0.487826,0.08268 0.826823,0.169499 0.686263,0.181901 1.033529,0.549837 0.347266,0.367936 0.347265,1.029395 z m 6.44922,1.302247 q -0.504362,0.23151 -1.103809,0.405143 -0.595313,0.169499 -1.153418,0.169499 -0.719336,0 -1.318783,-0.198438 -0.599447,-0.198437 -1.021127,-0.595313 -0.425814,-0.401009 -0.657324,-1.000456 -0.231511,-0.603581 -0.231511,-1.409733 0,-1.47588 0.859896,-2.327508 0.86403,-0.855762 2.368849,-0.855762 0.525033,0 1.070736,0.128158 0.549837,0.124023 1.182357,0.425814 v 0.971517 h -0.07441 q -0.128158,-0.09922 -0.37207,-0.260449 -0.243913,-0.161231 -0.479558,-0.268718 -0.285254,-0.128157 -0.649056,-0.21084 -0.359668,-0.08682 -0.818555,-0.08682 -1.033529,0 -1.63711,0.665593 -0.599447,0.661458 -0.599447,1.794206 0,1.19476 0.628386,1.860352 0.628385,0.661459 1.711524,0.661459 0.396875,0 0.789616,-0.07855 0.396875,-0.07855 0.694531,-0.202572 V 95.524556 H 81.85507 v -0.719337 h 2.459799 z m 6.126762,0.454752 H 89.428772 L 86.510086,92.39503 v 5.506642 h -0.764811 v -6.155699 h 1.269173 l 2.662371,5.027086 v -5.027086 h 0.764812 z m 6.784085,0 h -2.430861 v -0.628385 h 0.806153 v -4.898928 h -0.806153 v -0.628386 h 2.430861 v 0.628386 h -0.806153 v 4.898928 h 0.806153 z m 6.875034,0 h -0.81856 v -5.304071 l -1.71152,3.609084 h -0.48783 l -1.699118,-3.609084 v 5.304071 h -0.764811 v -6.155699 h 1.116211 l 1.641248,3.427183 1.5875,-3.427183 h 1.13688 z m 6.78822,-0.454752 q -0.50436,0.23151 -1.10381,0.405143 -0.59531,0.169499 -1.15342,0.169499 -0.71933,0 -1.31878,-0.198438 -0.59945,-0.198437 -1.02113,-0.595313 -0.42581,-0.401009 -0.65732,-1.000456 -0.23151,-0.603581 -0.23151,-1.409733 0,-1.47588 0.85989,-2.327508 0.86403,-0.855762 2.36885,-0.855762 0.52504,0 1.07074,0.128158 0.54984,0.124023 1.18236,0.425814 v 0.971517 h -0.0744 q -0.12816,-0.09922 -0.37207,-0.260449 -0.24391,-0.161231 -0.47956,-0.268718 -0.28525,-0.128157 -0.64905,-0.21084 -0.35967,-0.08682 -0.81856,-0.08682 -1.03353,0 -1.63711,0.665593 -0.59944,0.661458 -0.59944,1.794206 0,1.19476 0.62838,1.860352 0.62839,0.661459 1.71153,0.661459 0.39687,0 0.78961,-0.07855 0.39688,-0.07855 0.69453,-0.202572 V 95.52455 h -1.64951 v -0.719337 h 2.4598 z"
            id="text9"
            inkscape:label="text9"
            aria-label="MISGN IMG"
            inkscape:export-filename="..\frontend\assets\app_img\misgn.svg"
            inkscape:export-xdpi="96"
            inkscape:export-ydpi="96"/>
  </g>
</svg>
